<?xml version="1.0" encoding="UTF-8"?>
<svg xmlns="http://www.w3.org/2000/svg" xmlns:xlink="http://www.w3.org/1999/xlink" version="1.2" >
<font id="Lostfield Condensed bold">
<font-face  font-family="Lostfield Condensed" units-per-em="1000" ascent="750" descent="-250" font-style="normal" font-weight="400" font-stretch="normal" cap-height="700" x-height="500" underline-position="-75" underline-thickness="50" />
<missing-glyph  horiz-adv-x="152" d="" />
<glyph glyph-name="NULL" d="" />
<glyph glyph-name="CR" unicode="&#xd;" horiz-adv-x="152" d="" />
<glyph glyph-name="space" unicode="&#x20;" horiz-adv-x="152" d="" />
<glyph glyph-name="exclam" unicode="&#x21;" horiz-adv-x="158" d="M79 108 C49 108 21 82 21 49 C21 19 46 -8 79 -8 C109 -8 137 15 137 49 C137 79 112 108 79 108 L79 108 Z M47 177 L112 177 L132 560 L26 560 L47 177 Z " />
<glyph glyph-name="quotedbl" unicode="&#x22;" horiz-adv-x="280" d="M89 344 L125 560 L24 560 L16 344 L89 344 Z M230 344 L266 560 L164 560 L157 344 L230 344 Z " />
<glyph glyph-name="numbersign" unicode="&#x23;" horiz-adv-x="360" d="M181 0 L243 0 L253 125 L307 125 L307 182 L258 182 L268 297 L320 297 L320 354 L272 354 L283 480 L222 480 L211 354 L154 354 L165 480 L104 480 L93 354 L40 354 L40 297 L88 297 L78 182 L28 182 L28 125 L74 125 L63 0 L124 0 L135 125 L192 125 L181 0 Z M149 297 L207 297 L197 182 L140 182 L149 297 Z " />
<glyph glyph-name="dollar" unicode="&#x24;" horiz-adv-x="287" d="M104 169 L14 169 L14 118 C14 84 23 55 41 33 C60 12 84 -2 115 -6 L115 -67 L173 -67 L173 -5 C203 2 228 16 247 39 C265 61 275 90 275 124 C275 188 245 251 187 311 C137 361 112 403 112 436 C112 449 115 459 121 466 C128 474 136 477 147 477 C157 477 166 474 172 466 C179 458 182 447 182 433 L182 397 L271 397 L271 439 C271 473 262 500 245 521 C227 542 203 555 173 560 L173 621 L115 621 L115 558 C87 552 63 538 45 516 C27 493 19 466 19 433 C19 375 49 315 109 255 C158 206 182 162 182 121 C182 108 178 97 171 88 C164 80 155 76 143 76 C131 76 121 80 115 89 C108 97 104 109 104 124 L104 169 L104 169 Z " />
<glyph glyph-name="percent" unicode="&#x25;" horiz-adv-x="422" d="M110 488 C80 488 55 478 35 459 C15 439 5 415 5 385 C5 355 15 331 34 312 C54 293 78 284 108 284 C137 284 162 293 182 313 C202 332 212 357 212 387 C212 416 202 440 183 459 C163 478 139 488 110 488 L110 488 Z M30 0 L92 0 L388 480 L326 480 L30 0 Z M109 346 C98 346 89 350 81 357 C74 365 70 374 70 386 C70 397 74 407 81 414 C89 421 98 425 109 425 C119 425 128 421 136 414 C143 407 146 397 146 386 C146 374 143 365 136 357 C128 350 119 346 109 346 L109 346 Z M310 195 C280 195 255 185 235 166 C215 146 205 122 205 93 C205 63 215 39 234 20 C254 1 279 -8 308 -8 C338 -8 363 1 383 21 C403 40 413 65 413 94 C413 123 403 147 384 166 C364 185 340 195 310 195 L310 195 Z M309 54 C298 54 289 58 282 65 C275 72 271 82 271 93 C271 105 275 115 282 122 C289 130 298 133 309 133 C320 133 329 130 336 122 C344 115 347 105 347 93 C347 82 344 72 336 65 C329 58 320 54 309 54 L309 54 Z " />
<glyph glyph-name="ampersand" unicode="&#x26;" horiz-adv-x="355" d="M315 249 L315 325 L278 325 L278 356 L186 356 L186 325 L147 325 C137 325 129 329 123 336 C118 343 115 353 115 365 L115 441 C115 453 118 463 123 470 C129 477 137 480 147 480 C157 480 165 477 171 470 C177 463 180 453 180 441 L180 392 L269 392 L269 441 C269 478 257 508 233 532 C209 556 180 568 146 568 C111 568 81 556 57 534 C33 511 21 481 21 445 L21 381 C21 344 35 313 61 289 C30 265 15 232 15 189 L15 124 C15 85 28 54 54 29 C80 4 111 -8 149 -8 C176 -8 200 -1 221 12 C239 -1 262 -8 291 -8 C310 -8 315 -8 315 -8 L315 77 C290 77 278 91 278 118 L278 249 L315 249 L315 249 Z M186 123 C186 94 173 79 147 79 C135 79 125 83 119 91 C112 99 109 110 109 125 L109 204 C109 218 112 229 119 237 C125 245 135 249 147 249 L186 249 L186 123 L186 123 Z " />
<glyph glyph-name="quotesingle" unicode="&#x27;" horiz-adv-x="138" d="M90 344 L127 560 L25 560 L18 344 L90 344 L90 344 Z " />
<glyph glyph-name="parenleft" unicode="&#x28;" horiz-adv-x="257" d="M233 42 L223 55 C215 63 206 77 196 95 C186 114 176 135 166 158 C157 182 148 211 141 245 C134 280 130 315 130 352 C130 388 134 424 141 459 C149 494 157 523 166 545 C175 567 186 588 197 608 C209 629 217 642 222 648 C227 653 230 658 233 661 L168 712 L155 697 C146 688 135 672 122 652 C109 631 97 607 84 580 C72 553 61 519 52 478 C43 436 38 394 38 349 C38 305 43 262 52 221 C61 180 72 146 83 121 C95 95 108 71 123 49 C137 26 148 12 154 6 C160 0 165 -5 168 -8 L233 42 L233 42 Z " />
<glyph glyph-name="parenright" unicode="&#x29;" horiz-adv-x="257" d="M24 661 L35 648 C42 640 51 626 61 608 C70 590 81 569 91 545 C101 522 109 493 117 458 C124 423 127 388 127 352 C127 315 124 280 116 245 C109 209 100 181 91 158 C82 136 72 115 60 95 C48 75 40 62 35 56 C31 50 27 45 24 42 L89 -8 L103 6 C112 16 123 31 135 52 C148 73 161 96 173 123 C186 150 197 184 206 226 C215 267 219 310 219 354 C219 398 215 441 205 482 C196 524 186 557 174 583 C163 608 150 632 135 654 C120 677 109 691 103 697 C97 704 92 708 89 712 L24 661 L24 661 Z " />
<glyph glyph-name="asterisk" unicode="&#x2a;" horiz-adv-x="284" d="M276 437 L254 503 L169 467 L177 560 L107 560 L114 467 L30 503 L8 437 L97 416 L38 345 L94 304 L142 384 L190 304 L246 345 L186 416 L276 437 L276 437 Z " />
<glyph glyph-name="plus" unicode="&#x2b;" horiz-adv-x="356" d="M215 437 L142 437 L142 319 L40 319 L40 246 L142 246 L142 127 L215 127 L215 246 L316 246 L316 319 L215 319 L215 437 L215 437 Z " />
<glyph glyph-name="comma" unicode="&#x2c;" horiz-adv-x="124" d="M84 -163 L120 53 L18 53 L11 -163 L84 -163 L84 -163 Z " />
<glyph glyph-name="hyphen" unicode="&#x2d;" horiz-adv-x="272" d="M232 214 L232 300 L40 300 L40 214 L232 214 L232 214 Z " />
<glyph glyph-name="period" unicode="&#x2e;" horiz-adv-x="105" d="M55 48 C25 48 -2 21 -2 -11 C-2 -27 3 -40 15 -52 C26 -63 39 -68 55 -68 C71 -68 85 -63 97 -52 C108 -40 114 -27 114 -11 C114 5 108 19 97 30 C85 42 71 48 55 48 L55 48 Z " />
<glyph glyph-name="slash" unicode="&#x2f;" horiz-adv-x="328" d="M15 -8 L95 -8 L319 680 L239 680 L15 -8 L15 -8 Z " />
<glyph glyph-name="zero" unicode="0" horiz-adv-x="343" d="M40 121 C40 83 52 52 77 28 C102 4 133 -8 170 -8 C207 -8 238 4 264 29 C290 54 303 85 303 124 L303 438 C303 476 291 508 266 532 C241 556 210 568 173 568 C136 568 105 555 79 530 C53 505 40 473 40 435 L40 121 Z M132 432 C132 446 136 457 143 465 C150 473 159 477 171 477 C183 477 192 473 200 465 C206 457 210 446 210 432 L210 128 C210 113 206 102 200 94 C192 86 183 82 171 82 C159 82 150 86 143 94 C136 102 132 113 132 128 L132 432 Z " />
<glyph glyph-name="one" unicode="1" horiz-adv-x="216" d="M-18 469 L28 408 L80 446 L80 0 L173 0 L173 560 L93 560 L-18 469 L-18 469 Z " />
<glyph glyph-name="two" unicode="2" horiz-adv-x="312" d="M278 0 L278 86 L126 86 L239 303 C265 353 278 398 278 437 C278 475 265 507 241 531 C216 556 186 568 150 568 C115 568 84 555 59 530 C33 506 21 474 21 436 L21 376 L110 376 L110 428 C110 461 122 477 147 477 C158 477 167 473 174 464 C180 456 184 444 184 428 C184 400 177 372 162 343 L21 66 L21 0 L278 0 L278 0 Z " />
<glyph glyph-name="three" unicode="3" horiz-adv-x="291" d="M270 444 C270 481 258 511 234 534 C210 556 180 568 145 568 C112 568 82 556 58 532 C34 508 22 478 22 441 L22 392 L112 392 L112 440 C112 453 114 462 120 470 C126 477 134 481 144 481 C154 481 162 477 168 470 C173 462 176 453 176 440 L176 365 C176 353 173 343 168 336 C162 329 154 325 144 325 L110 325 L110 249 L144 249 C157 249 166 245 173 237 C179 229 183 218 183 204 L183 124 C183 110 179 99 173 91 C166 83 157 79 144 79 C118 79 105 94 105 124 L105 180 L15 180 L15 121 C15 82 28 51 52 27 C76 4 106 -8 143 -8 C180 -8 212 4 238 29 C263 54 276 85 276 124 L276 189 C276 232 261 265 230 289 C256 313 270 344 270 381 L270 444 L270 444 Z " />
<glyph glyph-name="four" unicode="4" horiz-adv-x="329" d="M31 208 L31 129 L184 129 L184 0 L269 0 L269 129 L313 129 L313 205 L269 205 L269 560 L180 560 L31 208 Z M105 205 L184 393 L184 205 L105 205 Z " />
<glyph glyph-name="five" unicode="5" horiz-adv-x="325" d="M40 248 L124 248 L124 258 C124 270 127 279 133 287 C139 294 148 298 159 298 C170 298 179 294 185 287 C192 279 195 268 195 255 L195 125 C195 112 192 101 185 94 C178 86 169 82 159 82 C148 82 139 86 133 94 C126 102 123 112 123 125 L123 176 L32 176 L32 116 C32 79 45 50 69 27 C94 3 123 -8 157 -8 C192 -8 223 4 249 28 C275 53 288 84 288 121 L288 271 C288 303 278 329 259 349 C239 370 214 380 185 380 C160 380 139 371 124 354 L124 473 L276 473 L276 560 L40 560 L40 248 L40 248 Z " />
<glyph glyph-name="six" unicode="6" horiz-adv-x="327" d="M30 123 C30 84 43 52 69 28 C94 4 126 -8 163 -8 C201 -8 233 4 259 30 C286 55 299 87 299 126 L299 238 C299 277 289 307 269 330 C249 352 221 364 185 364 C172 364 159 360 148 352 L234 560 L141 560 L58 355 C40 311 30 261 30 206 L30 123 Z M123 236 C123 250 127 261 135 270 C143 278 153 282 165 282 C177 282 187 278 195 270 C202 261 206 250 206 236 L206 129 C206 114 202 103 195 95 C187 86 177 82 165 82 C153 82 143 86 135 95 C127 103 123 114 123 129 L123 236 Z " />
<glyph glyph-name="seven" unicode="7" horiz-adv-x="293" d="M47 0 L142 0 L274 490 L274 560 L26 560 L26 470 L177 470 L47 0 L47 0 Z " />
<glyph glyph-name="eight" unicode="8" horiz-adv-x="303" d="M21 393 C21 351 36 319 65 296 C31 271 15 235 15 190 L15 125 C15 85 28 53 53 28 C79 4 111 -8 149 -8 C188 -8 220 5 247 30 C274 56 287 88 287 128 L287 193 C287 239 270 273 236 298 C266 323 281 356 281 396 L281 440 C281 478 268 509 243 532 C218 556 188 568 152 568 C116 568 85 556 60 531 C34 507 21 476 21 437 L21 393 Z M108 210 C108 226 112 238 119 247 C127 256 137 260 151 260 C164 260 175 256 182 247 C190 238 193 226 193 210 L193 126 C193 110 190 98 182 89 C175 80 164 76 151 76 C137 76 127 80 119 89 C112 98 108 110 108 126 L108 210 Z M114 440 C114 453 117 464 124 472 C131 480 140 484 151 484 C162 484 171 480 177 472 C184 464 187 454 187 440 L187 376 C187 362 184 351 177 343 C171 336 162 332 151 332 C140 332 131 336 124 344 C117 352 114 362 114 376 L114 440 Z " />
<glyph glyph-name="nine" unicode="9" horiz-adv-x="345" d="M308 437 C308 475 295 507 270 531 C244 556 213 568 175 568 C138 568 106 555 79 530 C52 504 39 472 39 433 L39 321 C39 283 49 252 70 230 C90 207 118 196 154 196 C167 196 179 199 191 207 L105 0 L198 0 L280 205 C299 249 308 298 308 353 L308 437 Z M215 324 C215 309 211 298 204 290 C196 281 186 277 174 277 C161 277 151 281 144 290 C137 298 133 309 133 324 L133 431 C133 445 137 457 144 465 C151 473 161 477 174 477 C186 477 196 473 204 465 C211 457 215 445 215 431 L215 324 Z " />
<glyph glyph-name="colon" unicode="&#x3a;" horiz-adv-x="143" d="M72 506 C42 506 15 482 15 448 C15 418 38 390 72 390 C102 390 131 414 131 448 C131 479 106 506 72 506 L72 506 Z M72 194 C42 194 15 168 15 135 C15 105 38 78 72 78 C102 78 131 101 131 135 C131 167 105 191 72 194 L72 194 Z " />
<glyph glyph-name="semicolon" unicode="&#x3b;" horiz-adv-x="150" d="M38 483 C27 472 22 458 22 442 C22 426 27 412 38 401 C50 390 63 384 79 384 C95 384 109 390 121 401 C132 412 138 426 138 442 C138 458 132 472 121 483 C109 495 95 500 79 500 C63 500 50 495 38 483 L38 483 Z M94 -24 L130 192 L29 192 L22 -24 L94 -24 Z " />
<glyph glyph-name="less" unicode="&#x3c;" horiz-adv-x="348" d="M316 408 L316 500 L40 345 L40 261 L316 108 L302 202 L117 298 L316 408 L316 408 Z " />
<glyph glyph-name="equal" unicode="&#x3d;" horiz-adv-x="327" d="M299 340 L299 416 L23 416 L23 340 L299 340 Z M299 188 L299 264 L23 264 L23 188 L299 188 Z " />
<glyph glyph-name="greater" unicode="&#x3e;" horiz-adv-x="348" d="M32 196 L31 105 L308 260 L308 343 L32 497 L32 402 L230 300 L32 196 L32 196 Z " />
<glyph glyph-name="question" unicode="&#x3f;" horiz-adv-x="284" d="M187 196 C187 214 192 233 201 253 C210 273 220 291 230 306 C241 321 251 340 260 364 C269 387 274 411 274 437 C274 475 261 507 237 531 C212 556 182 568 146 568 C110 568 79 555 54 530 C29 504 17 471 17 429 L17 384 L106 384 L106 429 C106 461 119 477 143 477 C154 477 163 473 170 464 C177 456 180 444 180 429 C180 409 176 389 168 369 C160 348 151 331 141 316 C131 301 122 283 114 262 C106 241 102 221 102 201 L102 177 L187 177 L187 196 Z M104 90 C92 79 86 65 86 49 C86 33 92 20 104 8 C115 -3 129 -8 145 -8 C161 -8 175 -3 186 8 C197 20 202 33 202 49 C202 65 197 79 186 90 C175 102 161 108 145 108 C129 108 115 102 104 90 L104 90 Z " />
<glyph glyph-name="at" unicode="&#x40;" horiz-adv-x="759" d="M251 259 C247 231 253 209 267 193 C281 176 301 168 326 168 C355 168 385 185 400 228 C389 178 406 137 428 117 C451 96 481 85 520 85 C578 85 625 108 663 155 C701 201 720 260 720 331 C720 429 688 511 623 577 C559 643 478 677 381 677 C284 677 203 643 137 576 C72 509 39 426 39 329 C39 234 71 154 135 90 C199 26 280 -7 378 -7 C406 -7 426 -4 439 1 L428 62 C419 60 403 58 379 58 C302 58 238 84 187 137 C135 190 110 254 110 330 C110 407 136 473 187 527 C239 582 303 609 379 609 C459 609 524 582 574 530 C624 477 650 409 650 325 C650 275 638 234 613 202 C589 169 560 153 526 153 C506 153 491 159 480 173 C469 187 466 206 470 231 L506 489 L501 497 L437 497 L429 468 C418 491 397 503 367 503 C342 503 321 496 304 481 C288 466 277 444 274 417 L251 259 Z M354 405 C356 425 367 435 385 435 C395 435 402 432 406 426 C411 420 413 412 412 402 L393 265 C390 246 379 236 360 236 C351 236 345 239 340 245 C335 251 333 259 334 269 L354 405 Z " />
<glyph glyph-name="A" unicode="A" horiz-adv-x="334" d="M219 560 L112 560 L10 0 L105 0 L121 108 L210 108 L230 0 L326 0 L219 560 Z M164 386 L196 187 L133 187 L164 386 Z " />
<glyph glyph-name="B" unicode="B" horiz-adv-x="339" d="M40 0 L182 0 C223 0 256 12 282 36 C307 60 320 93 320 136 L320 176 C320 233 298 273 255 294 C293 317 312 355 312 408 L312 426 C312 469 300 502 275 525 C251 548 218 560 177 560 L40 560 L40 0 Z M137 477 L164 477 C197 477 214 459 214 421 L214 381 C214 344 197 325 164 325 L137 325 L137 477 Z M137 250 L172 250 C205 250 221 231 221 194 L221 137 C221 100 205 81 172 81 L137 81 L137 250 Z " />
<glyph glyph-name="C" unicode="C" horiz-adv-x="347" d="M213 127 C213 113 210 102 203 94 C197 87 188 83 176 83 C164 83 155 87 148 94 C141 102 137 113 137 127 L137 433 C137 446 141 457 148 464 C155 472 164 476 176 476 C188 476 197 472 203 464 C210 457 213 446 213 433 L213 356 L309 356 L309 437 C309 477 296 508 271 532 C247 556 215 568 177 568 C138 568 106 555 79 530 C53 504 40 471 40 431 L40 125 C40 85 53 52 78 28 C104 4 136 -8 174 -8 C212 -8 244 4 270 28 C296 53 309 85 309 125 L309 212 L213 212 L213 127 L213 127 Z " />
<glyph glyph-name="D" unicode="D" horiz-adv-x="356" d="M40 0 L172 0 C216 0 250 12 276 37 C303 62 316 97 316 142 L316 420 C316 465 303 500 278 524 C252 548 218 560 175 560 L40 560 L40 0 Z M137 469 L168 469 C201 469 217 450 217 413 L217 147 C217 109 201 91 168 91 L137 91 L137 469 Z " />
<glyph glyph-name="E" unicode="E" horiz-adv-x="291" d="M264 0 L264 96 L137 96 L137 242 L236 242 L236 333 L137 333 L137 463 L260 463 L260 560 L40 560 L40 0 L264 0 L264 0 Z " />
<glyph glyph-name="F" unicode="F" horiz-adv-x="277" d="M232 242 L232 333 L137 333 L137 463 L256 463 L256 560 L40 560 L40 0 L137 0 L137 242 L232 242 L232 242 Z " />
<glyph glyph-name="G" unicode="G" horiz-adv-x="360" d="M320 364 L320 430 C320 472 307 505 280 530 C254 555 221 568 181 568 C141 568 108 555 80 529 C53 503 40 469 40 427 L40 129 C40 88 53 54 79 29 C105 4 138 -8 178 -8 C196 -8 213 -6 229 0 L320 0 L320 132 L320 333 L181 333 L181 242 L224 224 L224 129 C224 114 220 102 212 93 C205 84 194 80 180 80 C168 80 157 84 149 93 C141 102 137 114 137 129 L137 428 C137 444 141 455 149 464 C156 472 167 476 180 476 C193 476 202 472 210 464 C218 455 221 444 221 428 L221 364 L320 364 L320 364 Z " />
<glyph glyph-name="H" unicode="H" horiz-adv-x="356" d="M217 0 L316 0 L316 560 L217 560 L217 339 L137 339 L137 560 L40 560 L40 0 L137 0 L137 241 L217 241 L217 0 L217 0 Z " />
<glyph glyph-name="I" unicode="I" horiz-adv-x="180" d="M40 0 L140 0 L140 560 L40 560 L40 0 L40 0 Z " />
<glyph glyph-name="J" unicode="J" horiz-adv-x="220" d="M22 -8 L60 -8 C95 -8 123 2 146 23 C169 44 180 75 180 114 L180 560 L80 560 L80 135 C80 102 65 86 36 86 C31 86 22 86 22 86 L22 -8 L22 -8 Z " />
<glyph glyph-name="K" unicode="K" horiz-adv-x="354" d="M40 0 L138 0 L138 265 L231 0 L340 0 L226 294 L332 560 L223 560 L138 312 L138 560 L40 560 L40 0 L40 0 Z " />
<glyph glyph-name="L" unicode="L" horiz-adv-x="258" d="M248 0 L248 96 L138 96 L138 560 L40 560 L40 0 L248 0 L248 0 Z " />
<glyph glyph-name="M" unicode="M" horiz-adv-x="448" d="M202 84 L244 84 L318 342 L318 0 L408 0 L408 560 L316 560 L227 246 L139 560 L40 560 L40 0 L130 0 L130 336 L202 84 L202 84 Z " />
<glyph glyph-name="N" unicode="N" horiz-adv-x="364" d="M238 0 L324 0 L324 560 L238 560 L238 234 L132 560 L40 560 L40 0 L126 0 L126 345 L238 0 L238 0 Z " />
<glyph glyph-name="O" unicode="O" horiz-adv-x="360" d="M40 129 C40 88 53 54 79 29 C105 4 138 -8 178 -8 C218 -8 252 5 279 30 C306 56 320 90 320 132 L320 430 C320 472 307 505 281 530 C255 555 222 568 181 568 C142 568 108 555 81 529 C54 503 40 469 40 427 L40 129 Z M138 428 C138 444 141 455 149 464 C157 472 167 476 180 476 C193 476 203 472 210 464 C218 455 222 444 222 428 L222 131 C222 116 218 104 210 96 C203 87 193 83 180 83 C167 83 157 87 149 96 C141 104 138 116 138 131 L138 428 Z " />
<glyph glyph-name="P" unicode="P" horiz-adv-x="346" d="M40 0 L137 0 L137 200 L166 200 C213 200 249 212 276 238 C303 263 316 300 316 348 L316 414 C316 462 303 498 278 523 C252 547 216 560 170 560 L40 560 L40 0 Z M137 469 L168 469 C201 469 217 450 217 413 L217 344 C217 306 201 288 168 288 L137 288 L137 469 Z " />
<glyph glyph-name="Q" unicode="Q" horiz-adv-x="360" d="M320 132 L320 430 C320 472 307 505 281 530 C255 555 221 568 182 568 C141 568 108 555 81 529 C54 503 40 469 40 427 L40 129 C40 88 53 54 79 29 C105 4 138 -8 178 -8 C185 -8 189 -8 190 -8 L217 -96 L309 -96 L269 22 C303 48 320 85 320 132 L320 132 Z M215 141 L153 120 L163 86 C158 88 153 91 149 96 C141 104 138 116 138 131 L138 428 C138 444 141 455 149 464 C157 472 167 476 180 476 C193 476 203 472 210 464 C218 455 221 444 221 428 L221 131 C221 130 221 129 221 127 L215 141 L215 141 Z " />
<glyph glyph-name="R" unicode="R" horiz-adv-x="341" d="M316 353 L316 414 C316 462 303 498 277 523 C251 547 215 560 169 560 L40 560 L40 0 L138 0 L138 214 L174 214 C187 214 197 210 204 202 C210 194 214 184 214 170 L214 0 L309 0 L309 175 C309 209 300 237 281 259 C304 281 316 312 316 353 L316 353 Z M218 352 C218 329 211 313 199 304 C191 298 181 296 168 296 L138 296 L138 469 L168 469 C201 469 218 450 218 413 L218 352 L218 352 Z " />
<glyph glyph-name="S" unicode="S" horiz-adv-x="316" d="M115 172 L21 172 L21 126 C21 85 34 52 59 28 C85 4 117 -8 156 -8 C196 -8 230 4 257 30 C284 56 298 89 298 131 C298 164 290 196 274 225 C258 255 234 285 202 316 C171 346 151 369 140 386 C129 402 123 419 123 436 C123 449 127 460 134 467 C141 475 150 479 162 479 C173 479 182 475 189 467 C196 458 199 447 199 433 L199 400 L294 400 L294 437 C294 477 281 508 256 532 C232 556 201 568 163 568 C124 568 92 555 65 530 C39 506 26 473 26 433 C26 375 56 317 118 259 C150 228 171 203 183 185 C194 166 199 147 199 128 C199 113 195 102 188 93 C180 84 170 80 158 80 C145 80 135 84 127 93 C119 102 115 115 115 131 L115 172 L115 172 Z " />
<glyph glyph-name="T" unicode="T" horiz-adv-x="330" d="M300 463 L300 560 L30 560 L30 463 L115 463 L115 0 L215 0 L215 463 L300 463 L300 463 Z " />
<glyph glyph-name="U" unicode="U" horiz-adv-x="352" d="M214 560 L214 127 C214 113 211 102 204 94 C198 87 189 83 177 83 C165 83 156 87 149 94 C142 102 139 113 139 127 L139 560 L40 560 L40 125 C40 85 53 52 78 28 C104 4 136 -8 175 -8 C213 -8 246 4 272 29 C299 54 312 87 312 128 L312 560 L214 560 L214 560 Z " />
<glyph glyph-name="V" unicode="V" horiz-adv-x="330" d="M117 0 L213 0 L319 560 L221 560 L168 208 L116 560 L11 560 L117 0 L117 0 Z " />
<glyph glyph-name="W" unicode="W" horiz-adv-x="485" d="M110 0 L197 0 L241 302 L285 0 L375 0 L468 560 L369 560 L330 215 L284 560 L206 560 L160 215 L122 560 L17 560 L110 0 L110 0 Z " />
<glyph glyph-name="X" unicode="X" horiz-adv-x="343" d="M330 560 L226 560 L175 398 L125 560 L17 560 L120 288 L9 0 L113 0 L171 182 L230 0 L338 0 L226 292 L330 560 L330 560 Z " />
<glyph glyph-name="Y" unicode="Y" horiz-adv-x="340" d="M121 0 L218 0 L218 208 L320 560 L221 560 L173 336 L125 560 L20 560 L121 208 L121 0 L121 0 Z " />
<glyph glyph-name="Z" unicode="Z" horiz-adv-x="293" d="M265 0 L265 91 L121 91 L265 482 L265 560 L29 560 L29 469 L160 469 L17 76 L17 0 L265 0 L265 0 Z " />
<glyph glyph-name="bracketleft" unicode="&#x5b;" horiz-adv-x="258" d="M232 -8 L232 73 L132 73 L132 597 L232 597 L232 680 L40 680 L40 -8 L232 -8 L232 -8 Z " />
<glyph glyph-name="backslash" unicode="&#x5c;" horiz-adv-x="339" d="M96 680 L16 680 L240 -8 L319 -8 L96 680 L96 680 Z " />
<glyph glyph-name="bracketright" unicode="&#x5d;" horiz-adv-x="258" d="M218 -8 L218 680 L26 680 L26 597 L126 597 L126 73 L26 73 L26 -8 L218 -8 L218 -8 Z " />
<glyph glyph-name="asciicircum" unicode="&#x5e;" horiz-adv-x="382" d="M242 288 L336 288 L230 560 L150 560 L45 288 L140 288 L191 455 L242 288 L242 288 Z " />
<glyph glyph-name="underscore" unicode="&#x5f;" horiz-adv-x="407" d="M369 0 L369 68 L49 68 L49 0 L369 0 L369 0 Z " />
<glyph glyph-name="grave" unicode="&#x60;" horiz-adv-x="154" d="M106 560 L10 560 L74 426 L144 426 L106 560 L106 560 Z " />
<glyph glyph-name="a" unicode="a" horiz-adv-x="328" d="M24 109 C24 72 33 44 52 23 C71 2 95 -8 126 -8 C162 -8 200 18 205 78 L205 0 L288 0 L288 299 C288 335 276 364 252 387 C228 409 199 420 164 420 C130 420 100 409 76 385 C52 362 40 332 40 296 L129 303 C129 315 132 324 138 331 C145 338 153 341 162 341 C172 341 180 338 186 331 C193 324 196 315 196 303 L196 217 C179 237 156 247 129 247 C98 247 73 236 53 214 C34 192 24 162 24 126 L24 109 Z M116 133 C116 147 119 158 127 167 C134 175 144 179 156 179 C168 179 178 175 185 167 C192 158 196 147 196 133 L196 111 C196 97 192 86 185 78 C178 69 168 65 156 65 C144 65 134 69 127 78 C119 86 116 97 116 111 L116 133 Z " />
<glyph glyph-name="b" unicode="b" horiz-adv-x="340" d="M40 0 L121 0 L121 78 C121 31 151 -8 197 -8 C226 -8 250 2 270 23 C289 44 299 72 299 107 L299 308 C299 344 290 371 271 391 C253 411 229 420 199 420 C171 420 149 410 132 390 L132 560 L40 560 L40 0 Z M207 120 C207 106 204 96 197 89 C190 81 181 77 169 77 C158 77 149 81 142 89 C135 96 132 106 132 120 L132 293 C132 306 135 316 142 324 C149 332 158 336 169 336 C181 336 190 332 197 324 C204 316 207 306 207 293 L207 120 Z " />
<glyph glyph-name="c" unicode="c" horiz-adv-x="330" d="M201 172 L201 116 C201 104 198 95 192 88 C185 81 177 77 166 77 C156 77 147 81 141 88 C135 95 132 104 132 116 L132 296 C132 308 135 318 141 325 C147 332 156 336 166 336 C177 336 185 332 192 325 C198 318 201 308 201 296 L201 244 L290 244 L290 298 C290 334 278 364 255 386 C232 409 203 420 168 420 C132 420 102 409 77 385 C52 361 40 331 40 295 L40 114 C40 78 52 48 76 26 C100 3 130 -8 165 -8 C199 -8 229 3 253 27 C277 51 290 81 290 117 L290 172 L201 172 L201 172 Z " />
<glyph glyph-name="d" unicode="d" horiz-adv-x="339" d="M217 0 L299 0 L299 560 L207 560 L207 390 C190 410 167 420 140 420 C110 420 86 411 67 391 C49 371 40 344 40 308 L40 107 C40 72 49 44 69 23 C88 2 113 -8 142 -8 C187 -8 217 31 217 78 L217 0 Z M142 89 C135 96 132 106 132 120 L132 293 C132 306 135 316 142 324 C149 332 158 336 169 336 C180 336 189 332 196 324 C203 316 207 306 207 293 L207 120 C207 106 203 96 196 89 C189 81 180 77 169 77 C158 77 149 81 142 89 L142 89 Z " />
<glyph glyph-name="e" unicode="e" horiz-adv-x="333" d="M207 120 C207 106 204 96 197 89 C190 81 181 77 169 77 C158 77 149 81 142 89 C135 96 132 106 132 120 L132 194 L293 194 L293 298 C293 334 281 364 257 386 C233 409 203 420 168 420 C133 420 103 409 77 385 C52 362 40 332 40 295 L40 115 C40 78 52 48 76 26 C100 3 129 -8 165 -8 C200 -8 230 3 255 27 C280 51 293 81 293 117 L293 148 L207 148 L207 120 Z M132 302 C132 315 135 325 142 333 C149 341 158 344 169 344 C181 344 190 341 197 333 C204 325 207 315 207 302 L207 254 L132 254 L132 302 Z " />
<glyph glyph-name="f" unicode="f" horiz-adv-x="237" d="M21 336 L65 336 L65 0 L157 0 L157 336 L221 336 L221 412 L157 412 L157 444 C157 471 169 485 193 485 C201 485 221 485 221 485 L221 568 C221 568 178 568 169 568 C137 568 111 559 93 541 C74 524 65 498 65 463 L65 412 L21 412 L21 336 L21 336 Z " />
<glyph glyph-name="g" unicode="g" horiz-adv-x="339" d="M299 412 L216 412 L216 326 C214 370 191 420 142 420 C113 420 88 410 69 389 C49 368 40 340 40 305 L40 148 C40 113 49 86 67 66 C86 46 110 36 139 36 C168 36 190 46 207 65 L207 -15 C207 -27 203 -38 196 -46 C190 -53 180 -57 169 -57 C158 -57 149 -53 142 -46 C135 -38 132 -27 132 -15 L132 5 L43 5 L43 -11 C43 -48 55 -78 79 -102 C103 -125 132 -136 168 -136 C204 -136 235 -124 260 -100 C286 -76 299 -45 299 -8 L299 412 Z M132 293 C132 306 135 316 142 324 C149 332 158 336 169 336 C180 336 190 332 196 324 C203 316 207 306 207 293 L207 154 C206 142 203 132 196 125 C189 118 180 115 169 115 C158 115 149 119 142 126 C135 134 132 145 132 157 L132 293 Z " />
<glyph glyph-name="h" unicode="h" horiz-adv-x="336" d="M296 0 L296 308 C296 345 287 373 271 392 C254 411 232 420 205 420 C173 420 132 393 132 326 L132 560 L40 560 L40 0 L132 0 L132 299 C132 311 135 320 142 326 C149 332 158 336 169 336 C192 336 204 322 204 295 L204 0 L296 0 L296 0 Z " />
<glyph glyph-name="i" unicode="i" horiz-adv-x="173" d="M45 558 C34 547 29 533 29 517 C29 501 34 488 45 477 C57 465 70 460 86 460 C102 460 116 465 127 477 C139 488 145 501 145 517 C145 533 139 547 127 558 C116 570 102 576 86 576 C70 576 57 570 45 558 L45 558 Z M40 0 L133 0 L133 412 L40 412 L40 0 Z " />
<glyph glyph-name="j" unicode="j" horiz-adv-x="186" d="M8 -136 L48 -136 C76 -136 100 -127 118 -109 C137 -90 146 -65 146 -32 L146 412 L52 412 L52 -22 C52 -43 43 -54 24 -54 C19 -54 13 -55 8 -54 L8 -136 Z M58 558 C47 547 41 533 41 517 C41 501 47 488 58 477 C69 465 83 460 99 460 C115 460 128 465 140 477 C151 488 157 501 157 517 C157 533 151 547 140 558 C128 570 115 576 99 576 C83 576 69 570 58 558 L58 558 Z " />
<glyph glyph-name="k" unicode="k" horiz-adv-x="334" d="M40 0 L132 0 L132 201 L214 0 L320 0 L215 226 L312 412 L209 412 L132 238 L132 560 L40 560 L40 0 L40 0 Z " />
<glyph glyph-name="l" unicode="l" horiz-adv-x="174" d="M40 0 L134 0 L134 560 L40 560 L40 0 L40 0 Z " />
<glyph glyph-name="m" unicode="m" horiz-adv-x="490" d="M132 295 C132 322 143 336 167 336 C188 336 199 322 199 295 L199 0 L291 0 L291 296 C291 308 294 318 300 325 C307 332 315 336 326 336 C347 336 358 322 358 295 L358 0 L450 0 L450 308 C450 345 442 373 426 392 C410 411 388 420 361 420 C323 420 296 403 280 368 C266 403 240 420 202 420 C165 420 126 398 123 326 L123 412 L40 412 L40 0 L132 0 L132 295 L132 295 Z " />
<glyph glyph-name="n" unicode="n" horiz-adv-x="336" d="M132 295 C132 308 135 318 142 325 C149 332 158 336 170 336 C192 336 204 322 204 295 L204 0 L296 0 L296 308 C296 345 288 373 271 392 C254 411 232 420 205 420 C166 420 123 390 123 326 L123 412 L40 412 L40 0 L132 0 L132 295 L132 295 Z " />
<glyph glyph-name="o" unicode="o" horiz-adv-x="339" d="M40 117 C40 80 52 50 77 26 C101 3 132 -8 168 -8 C204 -8 235 4 261 28 C286 52 299 83 299 121 L299 295 C299 332 287 363 262 386 C238 409 207 420 171 420 C135 420 104 409 78 385 C53 361 40 330 40 292 L40 117 Z M132 293 C132 306 135 316 142 324 C149 332 158 336 170 336 C181 336 190 332 197 324 C204 316 207 306 207 293 L207 120 C207 106 204 96 197 89 C190 81 181 77 170 77 C158 77 149 81 142 89 C135 96 132 106 132 120 L132 293 Z " />
<glyph glyph-name="p" unicode="p" horiz-adv-x="339" d="M40 -128 L132 -128 L132 18 C148 0 170 -8 197 -8 C226 -8 251 2 270 23 C290 44 299 72 299 107 L299 308 C299 344 290 371 272 391 C253 411 229 420 199 420 C165 420 123 388 123 326 L123 412 L40 412 L40 -128 Z M207 120 C207 106 204 96 197 89 C190 81 181 77 170 77 C159 77 149 81 143 89 C136 96 132 106 132 120 L132 293 C132 306 136 316 143 324 C149 332 159 336 170 336 C181 336 190 332 197 324 C204 316 207 306 207 293 L207 120 Z " />
<glyph glyph-name="q" unicode="q" horiz-adv-x="339" d="M207 -128 L299 -128 L299 412 L217 412 L217 326 C217 388 175 420 140 420 C110 420 86 411 68 391 C49 371 40 344 40 308 L40 107 C40 72 50 44 69 23 C89 2 113 -8 143 -8 C170 -8 191 0 207 18 L207 -128 Z M143 89 C136 96 132 106 132 120 L132 293 C132 306 136 316 143 324 C150 332 158 336 170 336 C181 336 190 332 197 324 C204 316 207 306 207 293 L207 120 C207 106 204 96 197 89 C190 81 181 77 170 77 C158 77 150 81 143 89 L143 89 Z " />
<glyph glyph-name="r" unicode="r" horiz-adv-x="244" d="M218 420 C172 420 129 380 125 326 L125 412 L40 412 L40 0 L133 0 L133 248 C133 292 154 314 198 314 L218 314 L218 420 L218 420 Z " />
<glyph glyph-name="s" unicode="s" horiz-adv-x="307" d="M189 288 L277 288 L277 302 C277 337 265 365 242 387 C218 409 189 420 154 420 C119 420 90 410 66 388 C42 366 30 340 30 308 C30 253 60 210 119 181 C147 166 166 154 175 145 C184 135 189 124 189 112 C189 99 186 89 179 82 C172 75 163 71 152 71 C140 71 131 75 124 82 C117 90 114 101 114 114 L114 132 L25 132 L25 116 C25 79 37 49 62 26 C87 3 117 -8 153 -8 C189 -8 219 3 244 27 C269 50 281 80 281 116 C281 171 249 214 186 246 C161 258 144 269 135 278 C126 287 122 298 122 309 C122 319 125 327 131 333 C137 339 145 341 156 341 C165 341 173 338 180 331 C186 324 189 315 189 303 L189 288 L189 288 Z " />
<glyph glyph-name="t" unicode="t" horiz-adv-x="227" d="M11 336 L55 336 L55 96 C55 62 65 36 83 18 C102 0 127 -8 160 -8 C179 -8 211 -8 211 -8 L211 77 L184 77 C159 77 147 91 147 118 L147 336 L215 336 L215 412 L147 412 L147 512 L55 512 L55 412 L11 412 L11 336 L11 336 Z " />
<glyph glyph-name="u" unicode="u" horiz-adv-x="336" d="M204 117 C204 104 200 94 193 87 C187 80 177 77 166 77 C143 77 132 90 132 117 L132 412 L40 412 L40 104 C40 67 48 40 65 21 C82 1 104 -8 131 -8 C169 -8 213 22 213 86 L213 0 L296 0 L296 412 L204 412 L204 117 L204 117 Z " />
<glyph glyph-name="v" unicode="v" horiz-adv-x="300" d="M108 0 L192 0 L286 412 L197 412 L153 148 L110 412 L14 412 L108 0 L108 0 Z " />
<glyph glyph-name="w" unicode="w" horiz-adv-x="430" d="M101 0 L179 0 L215 232 L250 0 L328 0 L413 412 L324 412 L291 169 L252 412 L185 412 L146 169 L112 412 L17 412 L101 0 L101 0 Z " />
<glyph glyph-name="x" unicode="x" horiz-adv-x="328" d="M308 412 L215 412 L166 296 L118 412 L22 412 L117 213 L14 0 L108 0 L164 133 L220 0 L316 0 L212 216 L308 412 L308 412 Z " />
<glyph glyph-name="y" unicode="y" horiz-adv-x="302" d="M108 0 C104 -22 98 -38 89 -47 C81 -56 69 -60 55 -60 C45 -60 31 -60 31 -60 L31 -136 C31 -136 65 -136 74 -136 C133 -136 172 -94 191 -11 L287 412 L197 412 L154 133 L111 412 L15 412 L108 0 L108 0 Z " />
<glyph glyph-name="z" unicode="z" horiz-adv-x="262" d="M16 65 L16 0 L240 0 L240 79 L113 79 L240 350 L240 412 L28 412 L28 334 L141 334 L16 65 L16 65 Z " />
<glyph glyph-name="braceleft" unicode="&#x7b;" horiz-adv-x="310" d="M200 246 C200 302 178 332 133 336 C154 337 170 345 182 360 C194 375 200 397 200 425 L200 552 C200 569 203 581 211 589 C219 597 231 601 248 601 L284 601 L284 680 L240 680 C194 680 161 669 140 648 C118 626 108 593 108 547 L108 414 C108 389 95 376 69 376 L40 376 L40 295 L69 295 C95 295 108 282 108 257 L108 125 C108 79 118 45 140 24 C161 2 194 -8 240 -8 L284 -8 L284 71 L248 71 C231 71 218 75 211 82 C203 90 200 102 200 119 L200 246 L200 246 Z " />
<glyph glyph-name="bar" unicode="&#x7c;" horiz-adv-x="156" d="M40 -8 L116 -8 L116 712 L40 712 L40 -8 L40 -8 Z " />
<glyph glyph-name="braceright" unicode="&#x7d;" horiz-adv-x="310" d="M110 425 C110 368 132 338 176 336 C132 332 110 302 110 246 L110 119 C110 102 106 90 98 82 C91 75 79 71 62 71 L26 71 L26 -8 L69 -8 C114 -8 148 2 169 24 C191 45 202 79 202 125 L202 257 C202 282 214 295 240 295 L270 295 L270 376 L240 376 C214 376 202 389 202 414 L202 547 C202 593 191 626 169 648 C148 669 114 680 69 680 L26 680 L26 601 L62 601 C79 601 91 597 98 589 C106 582 110 570 110 552 L110 425 L110 425 Z " />
<glyph glyph-name="asciitilde" unicode="&#x7e;" horiz-adv-x="342" d="M86 231 L87 241 C87 248 90 255 94 262 C98 269 104 272 112 272 C122 272 133 268 143 260 C153 252 165 244 178 236 C191 228 206 223 223 223 C239 223 254 228 266 236 C278 245 287 254 293 265 C299 275 303 287 307 301 C310 315 312 324 312 330 C313 335 313 340 313 343 L248 343 L247 332 C247 325 244 318 240 311 C235 305 229 301 222 301 C211 301 195 309 174 325 C153 342 132 350 111 350 C94 350 80 346 68 337 C55 329 46 319 41 309 C35 298 31 286 27 272 C24 258 22 249 22 243 C21 238 21 234 21 231 L86 231 L86 231 Z " />
<glyph glyph-name="exclamdown" unicode="&#xa1;" horiz-adv-x="154" d="M118 469 C130 480 135 494 135 510 C135 526 130 540 118 551 C107 562 94 568 78 568 C62 568 48 562 36 551 C25 540 19 526 19 510 C19 494 25 480 36 469 C48 457 62 452 78 452 C94 452 107 457 118 469 L118 469 Z M110 382 L45 382 L24 0 L130 0 L110 382 Z " />
<glyph glyph-name="cent" unicode="&#xa2;" horiz-adv-x="329" d="M139 -71 L197 -71 L197 -8 C224 -1 246 12 263 34 C281 55 289 81 289 110 L289 165 L201 165 L201 110 C201 98 197 88 191 81 C185 74 177 70 166 70 C155 70 147 74 141 81 C135 88 132 98 132 110 L132 290 C132 301 135 311 141 318 C147 325 155 329 166 329 C177 329 185 325 191 318 C197 311 201 301 201 290 L201 239 L289 239 L289 291 C289 321 281 346 264 367 C247 388 224 402 197 408 L197 470 L139 470 L139 408 C110 402 86 389 68 367 C49 345 40 319 40 289 L40 108 C40 77 49 51 68 30 C86 8 110 -5 139 -10 L139 -71 L139 -71 Z " />
<glyph glyph-name="sterling" unicode="&#xa3;" horiz-adv-x="373" d="M337 384 L337 444 C337 481 325 510 301 533 C277 556 248 568 212 568 C176 568 145 555 120 531 C94 507 81 476 81 437 L81 297 L29 297 L29 241 L81 241 L81 86 L29 86 L29 0 L81 0 L174 0 L329 0 L329 86 L174 86 L174 241 L269 241 L269 297 L174 297 L174 436 C174 466 186 481 211 481 C235 481 247 466 247 436 L247 384 L337 384 L337 384 Z " />
<glyph glyph-name="currency" unicode="&#xa4;" horiz-adv-x="402" d="M71 347 C51 321 41 290 41 256 C41 222 51 191 71 164 L17 112 L58 71 L114 125 C138 109 168 101 201 101 C234 101 264 110 289 127 L345 71 L386 112 L332 166 C352 193 362 224 362 257 C362 292 351 322 331 350 L386 401 L345 442 L288 388 C264 404 235 413 203 413 C170 413 141 404 114 386 L58 442 L17 401 L71 347 Z M148 202 C133 217 126 235 126 257 C126 278 133 297 148 311 C163 326 181 333 202 333 C223 333 241 326 256 311 C271 296 278 278 278 257 C278 235 271 217 256 202 C241 187 223 180 202 180 C181 180 163 187 148 202 L148 202 Z " />
<glyph glyph-name="yen" unicode="&#xa5;" horiz-adv-x="348" d="M124 0 L222 0 L222 167 L308 167 L308 217 L222 217 L222 245 L227 261 L308 261 L308 312 L243 312 L324 560 L227 560 L176 351 L127 560 L24 560 L103 312 L40 312 L40 261 L119 261 L124 246 L124 217 L40 217 L40 167 L124 167 L124 0 L124 0 Z " />
<glyph glyph-name="brokenbar" unicode="&#xa6;" horiz-adv-x="143" d="M109 712 L32 712 L32 441 L109 441 L109 712 Z M32 -8 L109 -8 L109 261 L32 261 L32 -8 Z " />
<glyph glyph-name="section" unicode="&#xa7;" horiz-adv-x="410" d="M240 38 C240 27 237 17 230 11 C224 4 215 1 204 1 C192 1 183 5 177 12 C170 20 167 30 167 42 L167 66 L75 66 L75 40 C75 4 87 -24 111 -45 C135 -65 165 -75 202 -75 C240 -75 272 -64 297 -42 C323 -21 336 8 336 45 C336 82 322 115 296 145 C349 165 376 203 376 259 C376 290 366 317 346 340 C327 364 294 391 248 422 C222 440 203 456 192 470 C180 484 175 499 175 514 C175 526 178 535 185 542 C192 548 200 552 212 552 C223 552 232 548 238 541 C245 533 248 523 248 511 L248 486 L340 486 L340 513 C340 548 328 577 304 598 C280 618 250 629 213 629 C175 629 144 617 118 596 C92 573 80 544 80 508 C80 471 93 437 119 407 C66 388 40 351 40 294 C40 263 49 236 69 212 C88 189 121 161 167 130 C216 98 240 68 240 38 L240 38 Z M280 249 C280 235 276 224 267 215 C258 206 247 201 232 199 C193 226 167 247 154 260 C141 274 135 289 135 305 C135 318 139 329 148 338 C157 347 168 352 183 353 C222 327 248 306 261 293 C274 279 280 264 280 249 L280 249 Z " />
<glyph glyph-name="dieresis" unicode="&#xa8;" horiz-adv-x="275" d="M69 571 C42 571 19 550 19 520 C19 493 39 469 69 469 C96 469 121 489 121 520 C121 548 99 570 69 571 L69 571 Z M203 571 C176 571 153 550 153 520 C153 493 172 469 203 469 C231 469 254 489 254 520 C254 547 233 571 203 571 L203 571 Z " />
<glyph glyph-name="copyright" unicode="&#xa9;" horiz-adv-x="658" d="M123 484 C67 428 39 359 39 278 C39 197 66 129 121 74 C177 19 245 -8 327 -8 C409 -8 479 20 535 76 C591 132 619 200 619 281 C619 362 592 430 536 485 C481 540 413 568 330 568 C248 568 179 540 123 484 L123 484 Z M165 114 C120 158 98 213 98 280 C98 346 120 401 165 446 C209 490 264 513 329 513 C394 513 449 490 493 446 C537 401 559 346 559 280 C559 213 537 158 493 114 C449 69 394 47 329 47 C264 47 209 69 165 114 L165 114 Z M411 226 L404 217 C399 211 391 205 379 198 C367 192 353 189 339 189 C314 189 292 198 275 215 C258 232 250 254 250 280 C250 305 258 327 275 344 C292 361 314 370 339 370 C353 370 366 367 378 361 C389 355 397 351 400 347 C403 343 406 340 407 338 L459 384 L448 398 C440 407 426 415 405 424 C385 434 362 438 337 438 C291 438 252 423 222 392 C191 361 176 323 176 278 C176 233 191 196 221 166 C250 136 288 121 335 121 C361 121 385 127 407 138 C428 149 442 157 448 164 C454 171 458 176 462 181 L411 226 Z " />
<glyph glyph-name="ordfeminine" unicode="&#xaa;" horiz-adv-x="214" d="M23 385 C23 362 28 344 40 331 C52 318 68 311 88 312 C114 312 133 335 136 363 L136 316 L190 316 L190 495 C190 518 182 536 168 550 C153 564 134 571 112 571 C90 571 71 564 56 549 C40 535 32 516 32 493 L32 485 L92 485 L92 500 C92 514 99 521 111 521 C123 521 128 514 128 500 L128 450 C119 461 106 466 89 466 C69 466 53 459 41 446 C29 432 23 414 23 391 L23 385 Z M31 229 L190 229 L190 275 L31 275 L31 229 Z M84 398 C84 415 92 424 107 424 C121 424 128 415 128 398 L128 383 C128 366 121 357 107 357 C92 357 84 366 84 383 L84 398 Z " />
<glyph glyph-name="guillemotleft" unicode="&#xab;" horiz-adv-x="482" d="M244 408 L195 459 L40 312 L40 284 L195 139 L244 192 L144 300 L244 408 Z M448 408 L399 459 L244 312 L244 284 L399 139 L448 192 L348 300 L448 408 Z " />
<glyph glyph-name="logicalnot" unicode="&#xac;" horiz-adv-x="356" d="M237 119 L316 119 L316 300 L40 300 L40 227 L237 227 L237 119 L237 119 Z " />
<glyph glyph-name="registered" unicode="&#xae;" horiz-adv-x="321" d="M163 570 C124 570 90 556 64 529 C37 502 23 469 23 430 C23 392 36 359 63 333 C90 306 123 293 162 293 C201 293 234 306 261 333 C288 360 301 393 301 432 C301 471 288 504 262 530 C235 556 202 570 163 570 L163 570 Z M88 356 C68 376 58 401 58 431 C58 461 68 486 88 506 C108 527 133 537 162 537 C192 537 216 527 236 506 C256 486 266 461 266 431 C266 401 256 376 236 356 C216 336 192 326 162 326 C133 326 108 336 88 356 L88 356 Z M110 364 L144 364 L144 409 L159 409 L189 364 L227 364 L194 413 C212 420 221 433 221 454 C221 467 217 478 208 486 C199 494 187 498 172 498 L110 498 L110 364 Z M167 471 C181 471 188 464 188 452 C188 440 181 435 167 435 L144 435 L144 471 L167 471 Z " />
<glyph glyph-name="degree" unicode="&#xb0;" horiz-adv-x="288" d="M58 547 C34 523 22 493 22 459 C22 424 34 396 58 372 C82 348 111 336 146 336 C180 336 210 348 234 373 C259 397 271 426 271 460 C271 494 259 523 235 547 C211 571 182 583 147 583 C113 583 83 571 58 547 L58 547 Z M107 419 C96 430 91 443 91 460 C91 475 96 489 107 500 C118 511 131 517 146 517 C162 517 175 511 186 500 C196 489 202 475 202 460 C202 443 196 430 186 419 C175 407 162 402 146 402 C131 402 118 407 107 419 L107 419 Z " />
<glyph glyph-name="plusminus" unicode="&#xb1;" horiz-adv-x="345" d="M210 405 L136 405 L136 299 L35 299 L35 226 L136 226 L136 121 L210 121 L210 226 L311 226 L311 299 L210 299 L210 405 Z M311 1 L311 75 L35 75 L35 1 L311 1 Z " />
<glyph glyph-name="twosuperior" unicode="&#xb2;" horiz-adv-x="188" d="M175 228 L175 284 L83 284 L151 407 C167 436 175 463 175 487 C175 511 168 531 153 546 C137 561 118 568 95 568 C73 568 54 561 38 545 C23 530 15 510 15 486 L15 453 L75 453 L75 484 C75 502 81 511 94 511 C107 511 113 502 113 484 C113 465 109 448 100 432 L15 272 L15 228 L175 228 L175 228 Z " />
<glyph glyph-name="threesuperior" unicode="&#xb3;" horiz-adv-x="213" d="M183 491 C183 514 175 533 160 547 C145 561 127 568 104 568 C83 568 65 561 50 546 C35 531 27 512 27 489 L27 463 L88 463 L88 492 C88 506 93 513 103 513 C115 513 120 506 120 492 L120 446 C120 432 115 425 103 425 L103 377 C117 377 124 368 124 350 L124 304 C124 287 117 279 103 279 C90 279 83 287 83 304 L83 336 L23 336 L23 304 C23 279 31 259 46 245 C61 230 80 223 103 223 C127 223 147 230 163 246 C179 261 187 281 187 305 L187 339 C187 365 177 385 159 401 C175 416 183 435 183 459 L183 491 L183 491 Z " />
<glyph glyph-name="acute" unicode="&#xb4;" horiz-adv-x="154" d="M8 434 L78 434 L141 568 L45 568 L8 434 L8 434 Z " />
<glyph glyph-name="mu" unicode="&#xb5;" horiz-adv-x="336" d="M40 413 L40 -128 L132 -128 L132 -5 C137 -7 143 -8 152 -8 C178 -8 198 7 214 38 L217 0 L296 0 L296 413 L204 413 L204 114 C203 102 200 93 192 87 C185 80 177 77 166 77 C143 77 132 91 132 118 L132 413 L40 413 L40 413 Z " />
<glyph glyph-name="paragraph" unicode="&#xb6;" horiz-adv-x="451" d="M169 0 L261 0 L261 477 L319 477 L319 0 L411 0 L411 560 L165 560 C120 560 85 546 59 518 C33 490 20 455 20 413 C20 373 33 339 59 311 C84 283 119 269 163 269 L169 269 L169 0 L169 0 Z " />
<glyph glyph-name="cedilla" unicode="&#xb8;" horiz-adv-x="285" d="M116 -2 L121 -7 C125 -10 129 -15 133 -23 C137 -31 139 -39 139 -48 C139 -62 134 -74 125 -83 C116 -92 104 -96 89 -96 C76 -96 67 -95 62 -93 L62 -154 L67 -154 C70 -155 75 -156 81 -157 C88 -158 94 -158 101 -158 C133 -158 160 -149 180 -132 C200 -114 210 -90 210 -59 C210 -47 208 -35 204 -25 C200 -14 196 -6 191 0 C186 6 180 12 173 18 C167 23 163 26 160 28 C158 29 156 30 154 31 L116 -2 L116 -2 Z " />
<glyph glyph-name="onesuperior" unicode="&#xb9;" horiz-adv-x="152" d="M5 510 L36 469 L60 485 L60 225 L122 225 L122 561 L70 561 L5 510 L5 510 Z " />
<glyph glyph-name="ordmasculine" unicode="&#xba;" horiz-adv-x="200" d="M20 392 C20 368 28 348 43 334 C59 319 78 312 102 312 C124 312 144 319 160 335 C176 350 184 369 184 393 L184 492 C184 516 176 535 161 549 C145 564 126 571 103 571 C80 571 60 563 44 548 C28 534 20 514 20 490 L20 392 Z M28 229 L176 229 L176 275 L28 275 L28 229 Z M81 494 C81 510 88 517 102 517 C116 517 122 510 122 494 L122 388 C122 374 116 366 102 366 C88 366 81 374 81 388 L81 494 Z " />
<glyph glyph-name="guillemotright" unicode="&#xbb;" horiz-adv-x="441" d="M13 192 L61 142 L217 288 L217 316 L61 462 L13 408 L113 300 L13 192 Z M217 192 L265 142 L421 288 L421 316 L265 462 L217 408 L317 300 L217 192 Z " />
<glyph glyph-name="onequarter" unicode="&#xbc;" horiz-adv-x="460" d="M7 507 L38 466 L65 486 L65 225 L126 225 L126 561 L74 561 L7 507 Z M43 1 L105 1 L427 561 L365 561 L43 1 Z M262 126 L262 76 L356 76 L356 1 L412 1 L412 76 L438 76 L438 126 L412 126 L412 337 L353 337 L262 126 Z M311 126 L356 230 L356 126 L311 126 Z " />
<glyph glyph-name="onehalf" unicode="&#xbd;" horiz-adv-x="518" d="M20 505 L51 464 L80 485 L80 224 L141 224 L141 560 L89 560 L20 505 Z M58 0 L120 0 L442 560 L380 560 L58 0 Z M487 0 L487 56 L394 56 L462 180 C479 209 487 236 487 259 C487 284 479 304 464 319 C449 333 430 341 407 341 C384 341 366 333 350 318 C334 302 326 283 326 259 L326 226 L386 226 L386 256 C386 274 393 283 405 283 C418 283 425 274 425 256 C425 238 420 220 412 204 L326 44 L326 0 L487 0 Z " />
<glyph glyph-name="threequarters" unicode="&#xbe;" horiz-adv-x="494" d="M189 487 C189 511 182 530 167 544 C152 558 133 565 111 565 C89 565 71 558 56 543 C42 528 34 509 34 486 L34 460 L94 460 L94 488 C94 502 99 509 110 509 C121 509 127 502 127 488 L127 443 C127 428 121 421 110 421 L110 373 C124 373 131 364 131 347 L131 300 C131 284 124 275 110 275 C97 275 90 284 90 300 L90 332 L30 332 L30 300 C30 276 37 256 52 241 C67 227 87 220 110 220 C133 220 153 227 169 242 C185 257 193 277 193 302 L193 336 C193 361 184 382 165 398 C181 413 189 432 189 455 L189 487 Z M78 0 L140 0 L462 560 L400 560 L78 0 Z M297 127 L297 75 L391 75 L391 0 L447 0 L447 75 L473 75 L473 125 L447 125 L447 342 L388 342 L297 127 Z M345 125 L391 235 L391 125 L345 125 Z " />
<glyph glyph-name="questiondown" unicode="&#xbf;" horiz-adv-x="297" d="M108 363 C108 345 103 325 94 306 C85 286 75 268 64 253 C54 238 44 218 35 195 C26 171 21 147 21 122 C21 83 34 51 58 27 C83 3 113 -9 149 -9 C185 -9 216 3 241 29 C266 54 278 87 278 129 L278 175 L189 175 L189 130 C189 97 176 81 152 81 C141 81 132 85 125 94 C118 102 115 114 115 130 C115 149 119 169 127 189 C135 210 144 228 154 243 C164 258 173 275 181 296 C189 317 193 337 193 357 L193 381 L108 381 L108 363 Z M191 468 C203 479 209 493 209 509 C209 525 203 539 191 550 C180 561 166 567 150 567 C134 567 121 561 109 550 C98 539 93 525 93 509 C93 493 98 479 109 468 C121 456 134 451 150 451 C166 451 180 456 191 468 L191 468 Z " />
<glyph glyph-name="Agrave" unicode="&#xc0;" horiz-adv-x="334" d="M214 560 L107 560 L5 0 L100 0 L116 108 L205 108 L225 0 L321 0 L214 560 Z M159 386 L191 187 L128 187 L159 386 Z M194 760 L98 760 L162 626 L232 626 L194 760 Z " />
<glyph glyph-name="Aacute" unicode="&#xc1;" horiz-adv-x="334" d="M214 560 L107 560 L5 0 L100 0 L116 108 L205 108 L225 0 L321 0 L214 560 Z M159 386 L191 187 L128 187 L159 386 Z M93 634 L163 634 L226 768 L130 768 L93 634 Z " />
<glyph glyph-name="Acircumflex" unicode="&#xc2;" horiz-adv-x="334" d="M214 560 L107 560 L5 0 L100 0 L116 108 L205 108 L225 0 L321 0 L214 560 Z M159 386 L191 187 L128 187 L159 386 Z M48 626 L115 626 L158 693 L200 626 L272 626 L194 760 L126 760 L48 626 Z " />
<glyph glyph-name="Atilde" unicode="&#xc3;" horiz-adv-x="334" d="M214 560 L107 560 L5 0 L100 0 L116 108 L205 108 L225 0 L321 0 L214 560 Z M159 386 L191 187 L128 187 L159 386 Z M74 602 L75 612 C75 619 78 626 82 633 C86 640 92 643 100 643 C110 643 121 639 131 631 C142 623 153 615 166 607 C179 599 194 594 211 594 C227 594 242 599 254 607 C266 616 275 625 281 636 C287 646 292 658 295 672 C298 686 300 696 300 701 C301 706 301 710 301 714 L236 714 L236 703 C235 696 233 689 228 682 C223 675 218 672 210 672 C199 672 183 680 162 696 C141 713 120 721 99 721 C82 721 68 717 56 708 C43 699 34 690 29 680 C23 669 19 657 16 643 C12 629 11 620 10 614 C10 609 9 605 9 602 L74 602 Z " />
<glyph glyph-name="Adieresis" unicode="&#xc4;" horiz-adv-x="334" d="M214 560 L107 560 L5 0 L100 0 L116 108 L205 108 L225 0 L321 0 L214 560 Z M159 386 L191 187 L128 187 L159 386 Z M90 771 C63 771 40 750 40 720 C40 693 60 669 90 669 C117 669 142 689 142 720 C142 748 120 770 90 771 L90 771 Z M224 771 C197 771 174 750 174 720 C174 693 193 669 224 669 C252 669 275 689 275 720 C275 747 254 771 224 771 L224 771 Z " />
<glyph glyph-name="Aring" unicode="&#xc5;" horiz-adv-x="334" d="M214 560 L107 560 L5 0 L100 0 L116 108 L205 108 L225 0 L321 0 L214 560 Z M159 386 L191 187 L128 187 L159 386 Z M106 725 C92 712 85 695 85 674 C85 654 92 637 106 624 C120 610 138 603 160 603 C181 603 199 610 213 624 C227 637 234 654 234 674 C234 695 227 712 213 725 C199 739 181 746 160 746 C138 746 120 739 106 725 L106 725 Z M160 644 C150 644 143 647 137 653 C131 659 129 666 129 674 C129 684 131 691 137 697 C143 702 150 705 160 705 C168 705 175 702 181 697 C187 691 190 684 190 674 C190 666 187 659 181 653 C175 647 168 644 160 644 L160 644 Z " />
<glyph glyph-name="AE" unicode="&#xc6;" horiz-adv-x="451" d="M435 463 L435 560 L153 560 L7 0 L102 0 L129 108 L215 108 L215 0 L439 0 L439 96 L313 96 L313 242 L411 242 L411 332 L313 332 L313 463 L435 463 Z M145 187 L215 478 L215 187 L145 187 Z " />
<glyph glyph-name="Ccedilla" unicode="&#xc7;" horiz-adv-x="337" d="M213 127 C213 113 210 102 203 94 C197 87 188 83 176 83 C164 83 155 87 148 94 C141 102 137 113 137 127 L137 433 C137 446 141 457 148 464 C155 472 164 476 176 476 C188 476 197 472 203 464 C210 457 213 446 213 433 L213 356 L309 356 L309 437 C309 477 296 508 271 532 C247 556 215 568 177 568 C138 568 106 555 79 530 C53 504 40 471 40 431 L40 125 C40 85 53 52 78 28 C104 4 136 -8 174 -8 C212 -8 244 4 270 28 C296 53 309 85 309 125 L309 212 L213 212 L213 127 Z M146 -2 L151 -7 C155 -10 159 -15 163 -23 C167 -31 169 -39 169 -48 C169 -62 164 -74 155 -83 C146 -92 134 -96 119 -96 C106 -96 97 -95 92 -93 L92 -154 L97 -154 C100 -155 105 -156 111 -157 C118 -158 124 -158 131 -158 C163 -158 190 -149 210 -132 C230 -114 240 -90 240 -59 C240 -47 238 -35 234 -25 C230 -14 226 -6 221 0 C216 6 210 12 203 18 C197 23 193 26 190 28 C188 29 186 30 184 31 L146 -2 Z " />
<glyph glyph-name="Egrave" unicode="&#xc8;" horiz-adv-x="291" d="M264 0 L264 96 L137 96 L137 242 L236 242 L236 333 L137 333 L137 463 L260 463 L260 560 L40 560 L40 0 L264 0 Z M196 760 L100 760 L164 626 L234 626 L196 760 Z " />
<glyph glyph-name="Eacute" unicode="&#xc9;" horiz-adv-x="291" d="M264 0 L264 96 L137 96 L137 242 L236 242 L236 333 L137 333 L137 463 L260 463 L260 560 L40 560 L40 0 L264 0 Z M108 634 L178 634 L241 768 L145 768 L108 634 Z " />
<glyph glyph-name="Ecircumflex" unicode="&#xca;" horiz-adv-x="291" d="M264 0 L264 96 L137 96 L137 242 L236 242 L236 333 L137 333 L137 463 L260 463 L260 560 L40 560 L40 0 L264 0 Z M50 626 L117 626 L160 693 L202 626 L274 626 L196 760 L128 760 L50 626 Z " />
<glyph glyph-name="Edieresis" unicode="&#xcb;" horiz-adv-x="291" d="M264 0 L264 96 L137 96 L137 242 L236 242 L236 333 L137 333 L137 463 L260 463 L260 560 L40 560 L40 0 L264 0 Z M92 771 C65 771 42 750 42 720 C42 693 62 669 92 669 C119 669 144 689 144 720 C144 748 122 770 92 771 L92 771 Z M226 771 C199 771 176 750 176 720 C176 693 195 669 226 669 C254 669 277 689 277 720 C277 747 256 771 226 771 L226 771 Z " />
<glyph glyph-name="Igrave" unicode="&#xcc;" horiz-adv-x="180" d="M40 0 L140 0 L140 560 L40 560 L40 0 Z M122 760 L26 760 L90 626 L160 626 L122 760 Z " />
<glyph glyph-name="Iacute" unicode="&#xcd;" horiz-adv-x="180" d="M40 0 L140 0 L140 560 L40 560 L40 0 Z M34 634 L104 634 L167 768 L71 768 L34 634 Z " />
<glyph glyph-name="Icircumflex" unicode="&#xce;" horiz-adv-x="180" d="M40 0 L140 0 L140 560 L40 560 L40 0 Z M-24 626 L43 626 L86 693 L128 626 L200 626 L122 760 L54 760 L-24 626 Z " />
<glyph glyph-name="Idieresis" unicode="&#xcf;" horiz-adv-x="180" d="M40 0 L140 0 L140 560 L40 560 L40 0 Z M18 771 C-9 771 -32 750 -32 720 C-32 693 -12 669 18 669 C45 669 70 689 70 720 C70 748 48 770 18 771 L18 771 Z M152 771 C125 771 102 750 102 720 C102 693 121 669 152 669 C180 669 203 689 203 720 C203 747 182 771 152 771 L152 771 Z " />
<glyph glyph-name="Eth" unicode="&#xd0;" horiz-adv-x="400" d="M84 0 L217 0 C260 0 295 12 321 37 C347 62 360 97 360 142 L360 420 C360 465 347 500 322 524 C297 548 263 560 220 560 L84 560 L84 312 L30 312 L30 251 L84 251 L84 0 Z M182 468 L212 468 C245 468 262 450 262 412 L262 147 C262 109 245 91 212 91 L182 91 L182 251 L234 251 L234 312 L182 312 L182 468 Z " />
<glyph glyph-name="Ntilde" unicode="&#xd1;" horiz-adv-x="364" d="M238 0 L324 0 L324 560 L238 560 L238 234 L132 560 L40 560 L40 0 L126 0 L126 345 L238 0 Z M104 608 L105 618 C105 625 108 632 112 639 C116 646 122 649 130 649 C140 649 151 645 161 637 C172 629 183 621 196 613 C209 605 224 600 241 600 C257 600 272 605 284 613 C296 622 305 631 311 642 C317 652 322 664 325 678 C328 692 330 702 330 707 C331 712 331 716 331 720 L266 720 L266 709 C265 702 263 695 258 688 C253 681 248 678 240 678 C229 678 213 686 192 702 C171 719 150 727 129 727 C112 727 98 723 86 714 C73 705 64 696 59 686 C53 675 49 663 46 649 C42 635 41 626 40 620 C40 615 39 611 39 608 L104 608 Z " />
<glyph glyph-name="Ograve" unicode="&#xd2;" horiz-adv-x="360" d="M40 129 C40 88 53 54 79 29 C105 4 138 -8 178 -8 C218 -8 252 5 279 30 C306 56 320 90 320 132 L320 430 C320 472 307 505 281 530 C255 555 222 568 181 568 C142 568 108 555 81 529 C54 503 40 469 40 427 L40 129 Z M138 428 C138 444 141 455 149 464 C157 472 167 476 180 476 C193 476 203 472 210 464 C218 455 222 444 222 428 L222 131 C222 116 218 104 210 96 C203 87 193 83 180 83 C167 83 157 87 149 96 C141 104 138 116 138 131 L138 428 Z M211 741 L115 741 L179 607 L249 607 L211 741 Z " />
<glyph glyph-name="Oacute" unicode="&#xd3;" horiz-adv-x="360" d="M40 129 C40 88 53 54 79 29 C105 4 138 -8 178 -8 C218 -8 252 5 279 30 C306 56 320 90 320 132 L320 430 C320 472 307 505 281 530 C255 555 222 568 181 568 C142 568 108 555 81 529 C54 503 40 469 40 427 L40 129 Z M138 428 C138 444 141 455 149 464 C157 472 167 476 180 476 C193 476 203 472 210 464 C218 455 222 444 222 428 L222 131 C222 116 218 104 210 96 C203 87 193 83 180 83 C167 83 157 87 149 96 C141 104 138 116 138 131 L138 428 Z M118 607 L188 607 L251 741 L155 741 L118 607 Z " />
<glyph glyph-name="Ocircumflex" unicode="&#xd4;" horiz-adv-x="360" d="M40 129 C40 88 53 54 79 29 C105 4 138 -8 178 -8 C218 -8 252 5 279 30 C306 56 320 90 320 132 L320 430 C320 472 307 505 281 530 C255 555 222 568 181 568 C142 568 108 555 81 529 C54 503 40 469 40 427 L40 129 Z M138 428 C138 444 141 455 149 464 C157 472 167 476 180 476 C193 476 203 472 210 464 C218 455 222 444 222 428 L222 131 C222 116 218 104 210 96 C203 87 193 83 180 83 C167 83 157 87 149 96 C141 104 138 116 138 131 L138 428 Z M68 601 L135 601 L178 668 L220 601 L292 601 L214 735 L146 735 L68 601 Z " />
<glyph glyph-name="Otilde" unicode="&#xd5;" horiz-adv-x="360" d="M40 129 C40 88 53 54 79 29 C105 4 138 -8 178 -8 C218 -8 252 5 279 30 C306 56 320 90 320 132 L320 430 C320 472 307 505 281 530 C255 555 222 568 181 568 C142 568 108 555 81 529 C54 503 40 469 40 427 L40 129 Z M138 428 C138 444 141 455 149 464 C157 472 167 476 180 476 C193 476 203 472 210 464 C218 455 222 444 222 428 L222 131 C222 116 218 104 210 96 C203 87 193 83 180 83 C167 83 157 87 149 96 C141 104 138 116 138 131 L138 428 Z M91 610 L92 620 C92 627 95 634 99 641 C103 648 109 651 117 651 C127 651 138 647 148 639 C159 631 170 623 183 615 C196 607 211 602 228 602 C244 602 259 607 271 615 C283 624 292 633 298 644 C304 654 309 666 312 680 C315 694 317 704 317 709 C318 714 318 718 318 722 L253 722 L253 711 C252 704 250 697 245 690 C240 683 235 680 227 680 C216 680 200 688 179 704 C158 721 137 729 116 729 C99 729 85 725 73 716 C60 707 51 698 46 688 C40 677 36 665 33 651 C29 637 28 628 27 622 C27 617 26 613 26 610 L91 610 Z " />
<glyph glyph-name="Odieresis" unicode="&#xd6;" horiz-adv-x="360" d="M40 129 C40 88 53 54 79 29 C105 4 138 -8 178 -8 C218 -8 252 5 279 30 C306 56 320 90 320 132 L320 430 C320 472 307 505 281 530 C255 555 222 568 181 568 C142 568 108 555 81 529 C54 503 40 469 40 427 L40 129 Z M138 428 C138 444 141 455 149 464 C157 472 167 476 180 476 C193 476 203 472 210 464 C218 455 222 444 222 428 L222 131 C222 116 218 104 210 96 C203 87 193 83 180 83 C167 83 157 87 149 96 C141 104 138 116 138 131 L138 428 Z M112 742 C85 742 62 721 62 691 C62 664 82 640 112 640 C139 640 164 660 164 691 C164 719 142 741 112 742 L112 742 Z M246 742 C219 742 196 721 196 691 C196 664 215 640 246 640 C274 640 297 660 297 691 C297 718 276 742 246 742 L246 742 Z " />
<glyph glyph-name="multiply" unicode="&#xd7;" horiz-adv-x="306" d="M237 145 L288 197 L202 283 L288 370 L237 421 L150 335 L64 421 L12 370 L99 283 L12 197 L64 145 L150 231 L237 145 L237 145 Z " />
<glyph glyph-name="Oslash" unicode="&#xd8;" horiz-adv-x="360" d="M328 584 L283 584 L266 543 C241 559 213 568 181 568 C141 568 108 555 80 529 C53 503 40 469 40 427 L40 130 C40 99 47 72 62 50 L32 -24 L77 -24 L93 16 C118 0 146 -8 178 -8 C218 -8 252 5 279 30 C306 56 320 90 320 131 L320 430 C320 461 312 487 297 510 L328 584 Z M137 428 C137 443 141 455 149 464 C157 472 167 476 180 476 C204 476 218 462 220 433 L137 231 L137 428 Z M180 83 C168 83 158 86 151 93 C143 100 139 110 137 122 L221 326 L221 131 C221 116 217 104 210 96 C203 87 192 83 180 83 L180 83 Z " />
<glyph glyph-name="Ugrave" unicode="&#xd9;" horiz-adv-x="352" d="M214 560 L214 127 C214 113 211 102 204 94 C198 87 189 83 177 83 C165 83 156 87 149 94 C142 102 139 113 139 127 L139 560 L40 560 L40 125 C40 85 53 52 78 28 C104 4 136 -8 175 -8 C213 -8 246 4 272 29 C299 54 312 87 312 128 L312 560 L214 560 Z M203 745 L107 745 L171 611 L241 611 L203 745 Z " />
<glyph glyph-name="Uacute" unicode="&#xda;" horiz-adv-x="352" d="M214 560 L214 127 C214 113 211 102 204 94 C198 87 189 83 177 83 C165 83 156 87 149 94 C142 102 139 113 139 127 L139 560 L40 560 L40 125 C40 85 53 52 78 28 C104 4 136 -8 175 -8 C213 -8 246 4 272 29 C299 54 312 87 312 128 L312 560 L214 560 Z M116 604 L186 604 L249 738 L153 738 L116 604 Z " />
<glyph glyph-name="Ucircumflex" unicode="&#xdb;" horiz-adv-x="352" d="M214 560 L214 127 C214 113 211 102 204 94 C198 87 189 83 177 83 C165 83 156 87 149 94 C142 102 139 113 139 127 L139 560 L40 560 L40 125 C40 85 53 52 78 28 C104 4 136 -8 175 -8 C213 -8 246 4 272 29 C299 54 312 87 312 128 L312 560 L214 560 Z M63 608 L130 608 L173 675 L215 608 L287 608 L209 742 L141 742 L63 608 Z " />
<glyph glyph-name="Udieresis" unicode="&#xdc;" horiz-adv-x="352" d="M214 560 L214 127 C214 113 211 102 204 94 C198 87 189 83 177 83 C165 83 156 87 149 94 C142 102 139 113 139 127 L139 560 L40 560 L40 125 C40 85 53 52 78 28 C104 4 136 -8 175 -8 C213 -8 246 4 272 29 C299 54 312 87 312 128 L312 560 L214 560 Z M111 741 C84 741 61 720 61 690 C61 663 81 639 111 639 C138 639 163 659 163 690 C163 718 141 740 111 741 L111 741 Z M245 741 C218 741 195 720 195 690 C195 663 214 639 245 639 C273 639 296 659 296 690 C296 717 275 741 245 741 L245 741 Z " />
<glyph glyph-name="Yacute" unicode="&#xdd;" horiz-adv-x="310" d="M106 0 L203 0 L203 208 L305 560 L206 560 L158 336 L110 560 L5 560 L106 208 L106 0 Z M91 601 L161 601 L224 735 L128 735 L91 601 Z " />
<glyph glyph-name="Thorn" unicode="&#xde;" horiz-adv-x="356" d="M40 0 L138 0 L138 118 L167 118 C213 118 249 131 276 156 C303 182 316 219 316 267 L316 322 C316 370 303 406 278 431 C252 455 216 467 170 467 L138 467 L138 560 L40 560 L40 0 Z M138 380 L168 380 C201 380 218 361 218 324 L218 262 C218 225 201 206 168 206 L138 206 L138 380 Z " />
<glyph glyph-name="germandbls" unicode="&#xdf;" horiz-adv-x="352" d="M168 -8 L198 -8 C234 -8 265 4 290 28 C315 52 328 84 328 124 L328 232 C328 261 321 286 308 307 C295 328 278 344 255 354 L312 484 L308 492 C306 498 301 505 295 514 C288 522 280 530 270 538 C261 546 248 553 232 559 C215 565 197 568 178 568 C139 568 106 555 79 530 C53 505 40 472 40 432 L40 0 L137 0 L137 429 C137 444 141 455 149 464 C156 472 166 476 178 476 C197 476 209 470 216 456 L172 350 L172 285 L188 285 C201 285 211 280 218 272 C226 263 230 251 230 236 L230 132 C230 117 226 105 218 96 C211 88 201 84 188 84 C179 84 168 84 168 84 L168 -8 L168 -8 Z " />
<glyph glyph-name="agrave" unicode="&#xe0;" horiz-adv-x="328" d="M24 109 C24 72 33 44 52 23 C71 2 95 -8 126 -8 C162 -8 200 18 205 78 L205 0 L288 0 L288 299 C288 335 276 364 252 387 C228 409 199 420 164 420 C130 420 100 409 76 385 C52 362 40 332 40 296 L129 303 C129 315 132 324 138 331 C145 338 153 341 162 341 C172 341 180 338 186 331 C193 324 196 315 196 303 L196 217 C179 237 156 247 129 247 C98 247 73 236 53 214 C34 192 24 162 24 126 L24 109 Z M116 133 C116 147 119 158 127 167 C134 175 144 179 156 179 C168 179 178 175 185 167 C192 158 196 147 196 133 L196 111 C196 97 192 86 185 78 C178 69 168 65 156 65 C144 65 134 69 127 78 C119 86 116 97 116 111 L116 133 Z M195 560 L99 560 L163 426 L233 426 L195 560 Z " />
<glyph glyph-name="aacute" unicode="&#xe1;" horiz-adv-x="328" d="M24 109 C24 72 33 44 52 23 C71 2 95 -8 126 -8 C162 -8 200 18 205 78 L205 0 L288 0 L288 299 C288 335 276 364 252 387 C228 409 199 420 164 420 C130 420 100 409 76 385 C52 362 40 332 40 296 L129 303 C129 315 132 324 138 331 C145 338 153 341 162 341 C172 341 180 338 186 331 C193 324 196 315 196 303 L196 217 C179 237 156 247 129 247 C98 247 73 236 53 214 C34 192 24 162 24 126 L24 109 Z M116 133 C116 147 119 158 127 167 C134 175 144 179 156 179 C168 179 178 175 185 167 C192 158 196 147 196 133 L196 111 C196 97 192 86 185 78 C178 69 168 65 156 65 C144 65 134 69 127 78 C119 86 116 97 116 111 L116 133 Z M107 434 L177 434 L240 568 L144 568 L107 434 Z " />
<glyph glyph-name="acircumflex" unicode="&#xe2;" horiz-adv-x="328" d="M24 109 C24 72 33 44 52 23 C71 2 95 -8 126 -8 C162 -8 200 18 205 78 L205 0 L288 0 L288 299 C288 335 276 364 252 387 C228 409 199 420 164 420 C130 420 100 409 76 385 C52 362 40 332 40 296 L129 303 C129 315 132 324 138 331 C145 338 153 341 162 341 C172 341 180 338 186 331 C193 324 196 315 196 303 L196 217 C179 237 156 247 129 247 C98 247 73 236 53 214 C34 192 24 162 24 126 L24 109 Z M116 133 C116 147 119 158 127 167 C134 175 144 179 156 179 C168 179 178 175 185 167 C192 158 196 147 196 133 L196 111 C196 97 192 86 185 78 C178 69 168 65 156 65 C144 65 134 69 127 78 C119 86 116 97 116 111 L116 133 Z M49 426 L116 426 L159 493 L201 426 L273 426 L195 560 L127 560 L49 426 Z " />
<glyph glyph-name="atilde" unicode="&#xe3;" horiz-adv-x="328" d="M24 109 C24 72 33 44 52 23 C71 2 95 -8 126 -8 C162 -8 200 18 205 78 L205 0 L288 0 L288 299 C288 335 276 364 252 387 C228 409 199 420 164 420 C130 420 100 409 76 385 C52 362 40 332 40 296 L129 303 C129 315 132 324 138 331 C145 338 153 341 162 341 C172 341 180 338 186 331 C193 324 196 315 196 303 L196 217 C179 237 156 247 129 247 C98 247 73 236 53 214 C34 192 24 162 24 126 L24 109 Z M116 133 C116 147 119 158 127 167 C134 175 144 179 156 179 C168 179 178 175 185 167 C192 158 196 147 196 133 L196 111 C196 97 192 86 185 78 C178 69 168 65 156 65 C144 65 134 69 127 78 C119 86 116 97 116 111 L116 133 Z M77 457 L78 467 C78 474 81 481 85 488 C89 495 95 498 103 498 C113 498 124 494 134 486 C145 478 156 470 169 462 C182 454 197 449 214 449 C230 449 245 454 257 462 C269 471 278 480 284 491 C290 501 295 513 298 527 C301 541 303 551 303 556 C304 561 304 565 304 569 L239 569 L239 558 C238 551 236 544 231 537 C226 530 221 527 213 527 C202 527 186 535 165 551 C144 568 123 576 102 576 C85 576 71 572 59 563 C46 554 37 545 32 535 C26 524 22 512 19 498 C15 484 14 475 13 469 C13 464 12 460 12 457 L77 457 Z " />
<glyph glyph-name="adieresis" unicode="&#xe4;" horiz-adv-x="328" d="M24 109 C24 72 33 44 52 23 C71 2 95 -8 126 -8 C162 -8 200 18 205 78 L205 0 L288 0 L288 299 C288 335 276 364 252 387 C228 409 199 420 164 420 C130 420 100 409 76 385 C52 362 40 332 40 296 L129 303 C129 315 132 324 138 331 C145 338 153 341 162 341 C172 341 180 338 186 331 C193 324 196 315 196 303 L196 217 C179 237 156 247 129 247 C98 247 73 236 53 214 C34 192 24 162 24 126 L24 109 Z M116 133 C116 147 119 158 127 167 C134 175 144 179 156 179 C168 179 178 175 185 167 C192 158 196 147 196 133 L196 111 C196 97 192 86 185 78 C178 69 168 65 156 65 C144 65 134 69 127 78 C119 86 116 97 116 111 L116 133 Z M91 571 C64 571 41 550 41 520 C41 493 61 469 91 469 C118 469 143 489 143 520 C143 548 121 570 91 571 L91 571 Z M225 571 C198 571 175 550 175 520 C175 493 194 469 225 469 C253 469 276 489 276 520 C276 547 255 571 225 571 L225 571 Z " />
<glyph glyph-name="aring" unicode="&#xe5;" horiz-adv-x="328" d="M24 109 C24 72 33 44 52 23 C71 2 95 -8 126 -8 C162 -8 200 18 205 78 L205 0 L288 0 L288 299 C288 335 276 364 252 387 C228 409 199 420 164 420 C130 420 100 409 76 385 C52 362 40 332 40 296 L129 303 C129 315 132 324 138 331 C145 338 153 341 162 341 C172 341 180 338 186 331 C193 324 196 315 196 303 L196 217 C179 237 156 247 129 247 C98 247 73 236 53 214 C34 192 24 162 24 126 L24 109 Z M116 133 C116 147 119 158 127 167 C134 175 144 179 156 179 C168 179 178 175 185 167 C192 158 196 147 196 133 L196 111 C196 97 192 86 185 78 C178 69 168 65 156 65 C144 65 134 69 127 78 C119 86 116 97 116 111 L116 133 Z M107 525 C93 512 86 495 86 474 C86 454 93 437 107 424 C121 410 139 403 161 403 C182 403 200 410 214 424 C228 437 235 454 235 474 C235 495 228 512 214 525 C200 539 182 546 161 546 C139 546 121 539 107 525 L107 525 Z M161 444 C151 444 144 447 138 453 C132 459 130 466 130 474 C130 484 132 491 138 497 C144 502 151 505 161 505 C169 505 176 502 182 497 C188 491 191 484 191 474 C191 466 188 459 182 453 C176 447 169 444 161 444 L161 444 Z " />
<glyph glyph-name="ae" unicode="&#xe6;" horiz-adv-x="488" d="M24 109 C24 72 33 44 53 23 C72 2 99 -8 132 -8 C179 -8 212 7 231 36 C251 7 280 -8 320 -8 C355 -8 386 4 411 27 C436 51 448 81 448 117 L448 148 L363 148 L363 120 C363 106 359 96 352 89 C345 81 336 77 325 77 C314 77 305 81 298 89 C291 96 287 106 287 120 L287 194 L448 194 L448 298 C448 334 436 364 412 387 C388 409 359 421 323 421 C291 421 263 409 243 387 C224 409 197 421 163 421 C129 421 100 409 76 385 C52 362 40 332 40 296 L40 279 L128 279 L128 303 C128 315 132 324 138 331 C144 338 152 341 162 341 C172 341 180 338 186 331 C192 324 195 315 195 303 L195 217 C179 237 156 247 128 247 C98 247 73 236 53 214 C33 192 24 162 24 126 L24 109 Z M115 133 C115 147 119 158 126 166 C134 175 143 179 156 179 C168 179 178 175 185 166 C192 158 195 147 195 133 L195 111 C195 97 192 86 185 78 C178 69 168 65 156 65 C143 65 134 69 126 78 C119 86 115 97 115 111 L115 133 Z M287 302 C287 315 291 325 298 333 C305 341 314 344 325 344 C336 344 345 341 352 333 C359 325 363 315 363 302 L363 254 L287 254 L287 302 Z " />
<glyph glyph-name="ccedilla" unicode="&#xe7;" horiz-adv-x="330" d="M201 172 L201 116 C201 104 198 95 192 88 C185 81 177 77 166 77 C156 77 147 81 141 88 C135 95 132 104 132 116 L132 296 C132 308 135 318 141 325 C147 332 156 336 166 336 C177 336 185 332 192 325 C198 318 201 308 201 296 L201 244 L290 244 L290 298 C290 334 278 364 255 386 C232 409 203 420 168 420 C132 420 102 409 77 385 C52 361 40 331 40 295 L40 114 C40 78 52 48 76 26 C100 3 130 -8 165 -8 C199 -8 229 3 253 27 C277 51 290 81 290 117 L290 172 L201 172 Z M142 -2 L147 -7 C151 -10 155 -15 159 -23 C163 -31 165 -39 165 -48 C165 -62 160 -74 151 -83 C142 -92 130 -96 115 -96 C102 -96 93 -95 88 -93 L88 -154 L93 -154 C96 -155 101 -156 107 -157 C114 -158 120 -158 127 -158 C159 -158 186 -149 206 -132 C226 -114 236 -90 236 -59 C236 -47 234 -35 230 -25 C226 -14 222 -6 217 0 C212 6 206 12 199 18 C193 23 189 26 186 28 C184 29 182 30 180 31 L142 -2 Z " />
<glyph glyph-name="egrave" unicode="&#xe8;" horiz-adv-x="333" d="M207 120 C207 106 204 96 197 89 C190 81 181 77 169 77 C158 77 149 81 142 89 C135 96 132 106 132 120 L132 194 L293 194 L293 298 C293 334 281 364 257 386 C233 409 203 420 168 420 C133 420 103 409 77 385 C52 362 40 332 40 295 L40 115 C40 78 52 48 76 26 C100 3 129 -8 165 -8 C200 -8 230 3 255 27 C280 51 293 81 293 117 L293 148 L207 148 L207 120 Z M132 302 C132 315 135 325 142 333 C149 341 158 344 169 344 C181 344 190 341 197 333 C204 325 207 315 207 302 L207 254 L132 254 L132 302 Z M197 560 L101 560 L165 426 L235 426 L197 560 Z " />
<glyph glyph-name="eacute" unicode="&#xe9;" horiz-adv-x="333" d="M207 120 C207 106 204 96 197 89 C190 81 181 77 169 77 C158 77 149 81 142 89 C135 96 132 106 132 120 L132 194 L293 194 L293 298 C293 334 281 364 257 386 C233 409 203 420 168 420 C133 420 103 409 77 385 C52 362 40 332 40 295 L40 115 C40 78 52 48 76 26 C100 3 129 -8 165 -8 C200 -8 230 3 255 27 C280 51 293 81 293 117 L293 148 L207 148 L207 120 Z M132 302 C132 315 135 325 142 333 C149 341 158 344 169 344 C181 344 190 341 197 333 C204 325 207 315 207 302 L207 254 L132 254 L132 302 Z M109 434 L179 434 L242 568 L146 568 L109 434 Z " />
<glyph glyph-name="ecircumflex" unicode="&#xea;" horiz-adv-x="333" d="M207 120 C207 106 204 96 197 89 C190 81 181 77 169 77 C158 77 149 81 142 89 C135 96 132 106 132 120 L132 194 L293 194 L293 298 C293 334 281 364 257 386 C233 409 203 420 168 420 C133 420 103 409 77 385 C52 362 40 332 40 295 L40 115 C40 78 52 48 76 26 C100 3 129 -8 165 -8 C200 -8 230 3 255 27 C280 51 293 81 293 117 L293 148 L207 148 L207 120 Z M132 302 C132 315 135 325 142 333 C149 341 158 344 169 344 C181 344 190 341 197 333 C204 325 207 315 207 302 L207 254 L132 254 L132 302 Z M51 426 L118 426 L161 493 L203 426 L275 426 L197 560 L129 560 L51 426 Z " />
<glyph glyph-name="edieresis" unicode="&#xeb;" horiz-adv-x="333" d="M207 120 C207 106 204 96 197 89 C190 81 181 77 169 77 C158 77 149 81 142 89 C135 96 132 106 132 120 L132 194 L293 194 L293 298 C293 334 281 364 257 386 C233 409 203 420 168 420 C133 420 103 409 77 385 C52 362 40 332 40 295 L40 115 C40 78 52 48 76 26 C100 3 129 -8 165 -8 C200 -8 230 3 255 27 C280 51 293 81 293 117 L293 148 L207 148 L207 120 Z M132 302 C132 315 135 325 142 333 C149 341 158 344 169 344 C181 344 190 341 197 333 C204 325 207 315 207 302 L207 254 L132 254 L132 302 Z M96 571 C69 571 46 550 46 520 C46 493 66 469 96 469 C123 469 148 489 148 520 C148 548 126 570 96 571 L96 571 Z M230 571 C203 571 180 550 180 520 C180 493 199 469 230 469 C258 469 281 489 281 520 C281 547 260 571 230 571 L230 571 Z " />
<glyph glyph-name="igrave" unicode="&#xec;" horiz-adv-x="173" d="M133 0 L133 412 L40 412 L40 0 L133 0 Z M114 567 L18 567 L82 433 L152 433 L114 567 Z " />
<glyph glyph-name="iacute" unicode="&#xed;" horiz-adv-x="173" d="M133 0 L133 412 L40 412 L40 0 L133 0 Z M20 435 L90 435 L153 569 L57 569 L20 435 Z " />
<glyph glyph-name="icircumflex" unicode="&#xee;" horiz-adv-x="173" d="M133 0 L133 412 L40 412 L40 0 L133 0 Z M-25 428 L42 428 L85 495 L127 428 L199 428 L121 562 L53 562 L-25 428 Z " />
<glyph glyph-name="idieresis" unicode="&#xef;" horiz-adv-x="173" d="M133 0 L133 412 L40 412 L40 0 L133 0 Z M20 543 C-7 543 -30 522 -30 492 C-30 465 -10 441 20 441 C47 441 72 461 72 492 C72 520 50 542 20 543 L20 543 Z M154 543 C127 543 104 522 104 492 C104 465 123 441 154 441 C182 441 205 461 205 492 C205 519 184 543 154 543 L154 543 Z " />
<glyph glyph-name="eth" unicode="&#xf0;" horiz-adv-x="328" d="M270 355 L233 446 L287 482 L239 553 L200 527 L187 560 L94 560 L128 478 L80 445 L128 374 L161 397 L193 322 C181 352 157 364 143 364 C108 364 79 352 59 330 C39 307 29 276 29 238 L29 126 C29 87 42 55 69 30 C96 4 127 -8 165 -8 C202 -8 234 4 259 28 C285 52 297 84 297 123 L297 206 C297 261 289 311 270 355 L270 355 Z M205 128 C205 114 201 103 193 94 C186 86 176 82 163 82 C151 82 141 86 134 94 C126 103 122 114 122 128 L122 236 C122 250 126 261 134 270 C141 278 151 282 163 282 C176 282 186 278 193 270 C201 261 205 250 205 236 L205 128 L205 128 Z " />
<glyph glyph-name="ntilde" unicode="&#xf1;" horiz-adv-x="336" d="M132 295 C132 308 135 318 142 325 C149 332 158 336 170 336 C192 336 204 322 204 295 L204 0 L296 0 L296 308 C296 345 288 373 271 392 C254 411 232 420 205 420 C166 420 123 390 123 326 L123 412 L40 412 L40 0 L132 0 L132 295 Z M59 457 L60 467 C60 474 63 481 67 488 C71 495 77 498 85 498 C95 498 106 494 116 486 C127 478 138 470 151 462 C164 454 179 449 196 449 C212 449 227 454 239 462 C251 471 260 480 266 491 C272 501 277 513 280 527 C283 541 285 551 285 556 C286 561 286 565 286 569 L221 569 L221 558 C220 551 218 544 213 537 C208 530 203 527 195 527 C184 527 168 535 147 551 C126 568 105 576 84 576 C67 576 53 572 41 563 C28 554 19 545 14 535 C8 524 4 512 1 498 C-3 484 -4 475 -5 469 C-5 464 -6 460 -6 457 L59 457 Z " />
<glyph glyph-name="ograve" unicode="&#xf2;" horiz-adv-x="339" d="M40 117 C40 80 52 50 77 26 C101 3 132 -8 168 -8 C204 -8 235 4 261 28 C286 52 299 83 299 121 L299 295 C299 332 287 363 262 386 C238 409 207 420 171 420 C135 420 104 409 78 385 C53 361 40 330 40 292 L40 117 Z M132 293 C132 306 135 316 142 324 C149 332 158 336 170 336 C181 336 190 332 197 324 C204 316 207 306 207 293 L207 120 C207 106 204 96 197 89 C190 81 181 77 170 77 C158 77 149 81 142 89 C135 96 132 106 132 120 L132 293 Z M202 560 L106 560 L170 426 L240 426 L202 560 Z " />
<glyph glyph-name="oacute" unicode="&#xf3;" horiz-adv-x="339" d="M40 117 C40 80 52 50 77 26 C101 3 132 -8 168 -8 C204 -8 235 4 261 28 C286 52 299 83 299 121 L299 295 C299 332 287 363 262 386 C238 409 207 420 171 420 C135 420 104 409 78 385 C53 361 40 330 40 292 L40 117 Z M132 293 C132 306 135 316 142 324 C149 332 158 336 170 336 C181 336 190 332 197 324 C204 316 207 306 207 293 L207 120 C207 106 204 96 197 89 C190 81 181 77 170 77 C158 77 149 81 142 89 C135 96 132 106 132 120 L132 293 Z M114 434 L184 434 L247 568 L151 568 L114 434 Z " />
<glyph glyph-name="ocircumflex" unicode="&#xf4;" horiz-adv-x="339" d="M40 117 C40 80 52 50 77 26 C101 3 132 -8 168 -8 C204 -8 235 4 261 28 C286 52 299 83 299 121 L299 295 C299 332 287 363 262 386 C238 409 207 420 171 420 C135 420 104 409 78 385 C53 361 40 330 40 292 L40 117 Z M132 293 C132 306 135 316 142 324 C149 332 158 336 170 336 C181 336 190 332 197 324 C204 316 207 306 207 293 L207 120 C207 106 204 96 197 89 C190 81 181 77 170 77 C158 77 149 81 142 89 C135 96 132 106 132 120 L132 293 Z M56 426 L123 426 L166 493 L208 426 L280 426 L202 560 L134 560 L56 426 Z " />
<glyph glyph-name="otilde" unicode="&#xf5;" horiz-adv-x="339" d="M40 117 C40 80 52 50 77 26 C101 3 132 -8 168 -8 C204 -8 235 4 261 28 C286 52 299 83 299 121 L299 295 C299 332 287 363 262 386 C238 409 207 420 171 420 C135 420 104 409 78 385 C53 361 40 330 40 292 L40 117 Z M132 293 C132 306 135 316 142 324 C149 332 158 336 170 336 C181 336 190 332 197 324 C204 316 207 306 207 293 L207 120 C207 106 204 96 197 89 C190 81 181 77 170 77 C158 77 149 81 142 89 C135 96 132 106 132 120 L132 293 Z M85 457 L86 467 C86 474 89 481 93 488 C97 495 103 498 111 498 C121 498 132 494 142 486 C153 478 164 470 177 462 C190 454 205 449 222 449 C238 449 253 454 265 462 C277 471 286 480 292 491 C298 501 303 513 306 527 C309 541 311 551 311 556 C312 561 312 565 312 569 L247 569 L247 558 C246 551 244 544 239 537 C234 530 229 527 221 527 C210 527 194 535 173 551 C152 568 131 576 110 576 C93 576 79 572 67 563 C54 554 45 545 40 535 C34 524 30 512 27 498 C23 484 22 475 21 469 C21 464 20 460 20 457 L85 457 Z " />
<glyph glyph-name="odieresis" unicode="&#xf6;" horiz-adv-x="339" d="M40 117 C40 80 52 50 77 26 C101 3 132 -8 168 -8 C204 -8 235 4 261 28 C286 52 299 83 299 121 L299 295 C299 332 287 363 262 386 C238 409 207 420 171 420 C135 420 104 409 78 385 C53 361 40 330 40 292 L40 117 Z M132 293 C132 306 135 316 142 324 C149 332 158 336 170 336 C181 336 190 332 197 324 C204 316 207 306 207 293 L207 120 C207 106 204 96 197 89 C190 81 181 77 170 77 C158 77 149 81 142 89 C135 96 132 106 132 120 L132 293 Z M101 571 C74 571 51 550 51 520 C51 493 71 469 101 469 C128 469 153 489 153 520 C153 548 131 570 101 571 L101 571 Z M235 571 C208 571 185 550 185 520 C185 493 204 469 235 469 C263 469 286 489 286 520 C286 547 265 571 235 571 L235 571 Z " />
<glyph glyph-name="divide" unicode="&#xf7;" horiz-adv-x="356" d="M316 241 L316 321 L40 321 L40 241 L316 241 Z M178 475 C151 475 125 453 125 423 C125 397 149 371 178 371 C204 371 229 394 229 423 C229 451 208 474 178 475 L178 475 Z M178 191 C152 191 125 169 125 139 C125 112 148 87 178 87 C205 87 229 110 229 139 C229 166 208 190 178 191 L178 191 Z " />
<glyph glyph-name="oslash" unicode="&#xf8;" horiz-adv-x="340" d="M308 437 L259 437 L241 402 C220 415 197 421 172 421 C135 421 104 409 79 385 C53 361 40 330 40 293 L40 118 C40 88 49 62 65 42 L32 -24 L82 -24 L99 10 C119 -2 143 -8 169 -8 C205 -8 236 4 262 28 C287 52 300 83 300 120 L300 294 C300 324 292 349 275 371 L308 437 Z M130 293 C130 307 134 318 141 326 C149 335 158 339 170 339 C183 339 194 333 202 322 L130 175 L130 293 Z M170 74 C156 74 146 79 138 90 L211 239 L211 120 C211 105 207 94 200 86 C192 78 182 74 170 74 L170 74 Z " />
<glyph glyph-name="ugrave" unicode="&#xf9;" horiz-adv-x="336" d="M204 117 C204 104 200 94 193 87 C187 80 177 77 166 77 C143 77 132 90 132 117 L132 412 L40 412 L40 104 C40 67 48 40 65 21 C82 1 104 -8 131 -8 C169 -8 213 22 213 86 L213 0 L296 0 L296 412 L204 412 L204 117 Z M184 560 L88 560 L152 426 L222 426 L184 560 Z " />
<glyph glyph-name="uacute" unicode="&#xfa;" horiz-adv-x="336" d="M204 117 C204 104 200 94 193 87 C187 80 177 77 166 77 C143 77 132 90 132 117 L132 412 L40 412 L40 104 C40 67 48 40 65 21 C82 1 104 -8 131 -8 C169 -8 213 22 213 86 L213 0 L296 0 L296 412 L204 412 L204 117 Z M96 434 L166 434 L229 568 L133 568 L96 434 Z " />
<glyph glyph-name="ucircumflex" unicode="&#xfb;" horiz-adv-x="336" d="M204 117 C204 104 200 94 193 87 C187 80 177 77 166 77 C143 77 132 90 132 117 L132 412 L40 412 L40 104 C40 67 48 40 65 21 C82 1 104 -8 131 -8 C169 -8 213 22 213 86 L213 0 L296 0 L296 412 L204 412 L204 117 Z M38 426 L105 426 L148 493 L190 426 L262 426 L184 560 L116 560 L38 426 Z " />
<glyph glyph-name="udieresis" unicode="&#xfc;" horiz-adv-x="336" d="M204 117 C204 104 200 94 193 87 C187 80 177 77 166 77 C143 77 132 90 132 117 L132 412 L40 412 L40 104 C40 67 48 40 65 21 C82 1 104 -8 131 -8 C169 -8 213 22 213 86 L213 0 L296 0 L296 412 L204 412 L204 117 Z M83 571 C56 571 33 550 33 520 C33 493 53 469 83 469 C110 469 135 489 135 520 C135 548 113 570 83 571 L83 571 Z M217 571 C190 571 167 550 167 520 C167 493 186 469 217 469 C245 469 268 489 268 520 C268 547 247 571 217 571 L217 571 Z " />
<glyph glyph-name="yacute" unicode="&#xfd;" horiz-adv-x="302" d="M108 0 C104 -22 98 -38 89 -47 C81 -56 69 -60 55 -60 C45 -60 31 -60 31 -60 L31 -136 C31 -136 65 -136 74 -136 C133 -136 172 -94 191 -11 L287 412 L197 412 L154 133 L111 412 L15 412 L108 0 Z M72 434 L142 434 L205 568 L109 568 L72 434 Z " />
<glyph glyph-name="thorn" unicode="&#xfe;" horiz-adv-x="339" d="M40 -67 L132 -67 L132 129 C132 76 170 53 197 53 C226 53 251 64 270 84 C290 105 299 133 299 169 L299 370 C299 405 290 433 272 453 C253 472 229 482 199 482 C172 482 132 458 132 400 L132 621 L40 621 L40 -67 Z M207 181 C207 168 204 158 197 150 C190 142 181 139 170 139 C159 139 149 142 143 150 C136 158 132 168 132 181 L132 355 C132 368 136 378 143 386 C149 393 159 397 170 397 C181 397 190 393 197 386 C204 378 207 368 207 355 L207 181 Z " />
<glyph glyph-name="ydieresis" unicode="&#xff;" horiz-adv-x="302" d="M108 0 C104 -22 98 -38 89 -47 C81 -56 69 -60 55 -60 C45 -60 31 -60 31 -60 L31 -136 C31 -136 65 -136 74 -136 C133 -136 172 -94 191 -11 L287 412 L197 412 L154 133 L111 412 L15 412 L108 0 Z M90 565 C63 565 40 544 40 514 C40 487 60 463 90 463 C117 463 142 483 142 514 C142 542 120 564 90 565 L90 565 Z M224 565 C197 565 174 544 174 514 C174 487 193 463 224 463 C252 463 275 483 275 514 C275 541 254 565 224 565 L224 565 Z " />
<glyph glyph-name="Abreve" unicode="&#x102;" horiz-adv-x="345" d="M225 560 L118 560 L16 0 L111 0 L127 108 L216 108 L236 0 L332 0 L225 560 Z M170 386 L202 187 L139 187 L170 386 Z M78 737 L78 699 C78 670 87 646 105 629 C122 611 146 602 175 602 C204 602 227 611 245 630 C263 648 272 671 272 701 L272 737 L209 737 L209 697 C209 685 206 676 200 668 C194 661 186 657 175 657 C151 657 139 670 139 697 L139 737 L78 737 Z " />
<glyph glyph-name="abreve" unicode="&#x103;" horiz-adv-x="328" d="M24 109 C24 72 33 44 52 23 C71 2 95 -8 126 -8 C162 -8 200 18 205 78 L205 0 L288 0 L288 299 C288 335 276 364 252 387 C228 409 199 420 164 420 C130 420 100 409 76 385 C52 362 40 332 40 296 L129 303 C129 315 132 324 138 331 C145 338 153 341 162 341 C172 341 180 338 186 331 C193 324 196 315 196 303 L196 217 C179 237 156 247 129 247 C98 247 73 236 53 214 C34 192 24 162 24 126 L24 109 Z M116 133 C116 147 119 158 127 167 C134 175 144 179 156 179 C168 179 178 175 185 167 C192 158 196 147 196 133 L196 111 C196 97 192 86 185 78 C178 69 168 65 156 65 C144 65 134 69 127 78 C119 86 116 97 116 111 L116 133 Z M65 574 L65 536 C65 507 74 483 92 466 C109 448 133 439 162 439 C191 439 214 448 232 467 C250 485 259 508 259 538 L259 574 L196 574 L196 534 C196 522 193 513 187 505 C181 498 173 494 162 494 C138 494 126 507 126 534 L126 574 L65 574 Z " />
<glyph glyph-name="Aogonek" unicode="&#x104;" horiz-adv-x="334" d="M214 560 L107 560 L5 0 L100 0 L116 108 L205 108 L225 0 L321 0 L214 560 Z M159 386 L191 187 L128 187 L159 386 Z M281 36 L266 28 C257 23 247 13 237 -2 C227 -16 222 -33 222 -52 C222 -79 233 -101 253 -119 C273 -137 298 -145 329 -145 C344 -145 356 -144 363 -140 L363 -81 L338 -83 C323 -83 311 -79 302 -70 C293 -62 288 -51 288 -37 C288 -18 294 -5 307 3 L281 36 Z " />
<glyph glyph-name="aogonek" unicode="&#x105;" horiz-adv-x="329" d="M25 109 C25 72 34 44 53 23 C72 2 96 -8 127 -8 C163 -8 201 18 206 78 L206 0 L289 0 L289 299 C289 335 277 364 253 387 C229 409 200 420 165 420 C131 420 101 409 77 385 C53 362 41 332 41 296 L130 303 C130 315 133 324 139 331 C146 338 154 341 163 341 C173 341 181 338 187 331 C194 324 197 315 197 303 L197 217 C180 237 157 247 130 247 C99 247 74 236 54 214 C35 192 25 162 25 126 L25 109 Z M117 133 C117 147 120 158 128 167 C135 175 145 179 157 179 C169 179 179 175 186 167 C193 158 197 147 197 133 L197 111 C197 97 193 86 186 78 C179 69 169 65 157 65 C145 65 135 69 128 78 C120 86 117 97 117 111 L117 133 Z M259 36 L244 28 C235 23 225 13 215 -2 C205 -16 200 -33 200 -52 C200 -79 211 -101 231 -119 C251 -137 276 -145 307 -145 C322 -145 334 -144 341 -140 L341 -81 L316 -83 C301 -83 289 -79 280 -70 C271 -62 266 -51 266 -37 C266 -18 272 -5 285 3 L259 36 Z " />
<glyph glyph-name="Cacute" unicode="&#x106;" horiz-adv-x="348" d="M213 127 C213 113 210 102 203 94 C197 87 188 83 176 83 C164 83 155 87 148 94 C141 102 137 113 137 127 L137 433 C137 446 141 457 148 464 C155 472 164 476 176 476 C188 476 197 472 203 464 C210 457 213 446 213 433 L213 356 L309 356 L309 437 C309 477 296 508 271 532 C247 556 215 568 177 568 C138 568 106 555 79 530 C53 504 40 471 40 431 L40 125 C40 85 53 52 78 28 C104 4 136 -8 174 -8 C212 -8 244 4 270 28 C296 53 309 85 309 125 L309 212 L213 212 L213 127 Z M113 634 L183 634 L246 768 L150 768 L113 634 Z " />
<glyph glyph-name="cacute" unicode="&#x107;" horiz-adv-x="330" d="M201 172 L201 116 C201 104 198 95 192 88 C185 81 177 77 166 77 C156 77 147 81 141 88 C135 95 132 104 132 116 L132 296 C132 308 135 318 141 325 C147 332 156 336 166 336 C177 336 185 332 192 325 C198 318 201 308 201 296 L201 244 L290 244 L290 298 C290 334 278 364 255 386 C232 409 203 420 168 420 C132 420 102 409 77 385 C52 361 40 331 40 295 L40 114 C40 78 52 48 76 26 C100 3 130 -8 165 -8 C199 -8 229 3 253 27 C277 51 290 81 290 117 L290 172 L201 172 Z M109 434 L179 434 L242 568 L146 568 L109 434 Z " />
<glyph glyph-name="Ccaron" unicode="&#x10c;" horiz-adv-x="341" d="M213 127 C213 113 210 102 203 94 C197 87 188 83 176 83 C164 83 155 87 148 94 C141 102 137 113 137 127 L137 433 C137 446 141 457 148 464 C155 472 164 476 176 476 C188 476 197 472 203 464 C210 457 213 446 213 433 L213 356 L309 356 L309 437 C309 477 296 508 271 532 C247 556 215 568 177 568 C138 568 106 555 79 530 C53 504 40 471 40 431 L40 125 C40 85 53 52 78 28 C104 4 136 -8 174 -8 C212 -8 244 4 270 28 C296 53 309 85 309 125 L309 212 L213 212 L213 127 Z M277 754 L210 754 L168 686 L125 754 L54 754 L132 620 L200 620 L277 754 Z " />
<glyph glyph-name="ccaron" unicode="&#x10d;" horiz-adv-x="330" d="M201 172 L201 116 C201 104 198 95 192 88 C185 81 177 77 166 77 C156 77 147 81 141 88 C135 95 132 104 132 116 L132 296 C132 308 135 318 141 325 C147 332 156 336 166 336 C177 336 185 332 192 325 C198 318 201 308 201 296 L201 244 L290 244 L290 298 C290 334 278 364 255 386 C232 409 203 420 168 420 C132 420 102 409 77 385 C52 361 40 331 40 295 L40 114 C40 78 52 48 76 26 C100 3 130 -8 165 -8 C199 -8 229 3 253 27 C277 51 290 81 290 117 L290 172 L201 172 Z M273 605 L206 605 L164 537 L121 605 L50 605 L128 471 L196 471 L273 605 Z " />
<glyph glyph-name="Dcaron" unicode="&#x10e;" horiz-adv-x="356" d="M40 0 L172 0 C216 0 250 12 276 37 C303 62 316 97 316 142 L316 420 C316 465 303 500 278 524 C252 548 218 560 175 560 L40 560 L40 0 Z M137 469 L168 469 C201 469 217 450 217 413 L217 147 C217 109 201 91 168 91 L137 91 L137 469 Z M256 742 L189 742 L147 674 L104 742 L33 742 L111 608 L179 608 L256 742 Z " />
<glyph glyph-name="dcroat" unicode="&#x111;" horiz-adv-x="355" d="M300 560 L208 560 L208 518 L139 518 L139 457 L208 457 L208 394 C192 412 171 421 143 421 C113 421 89 411 70 390 C50 369 40 341 40 306 L40 104 C40 70 49 42 68 22 C86 2 110 -8 140 -8 C175 -8 211 20 217 78 L217 0 L300 0 L300 457 L345 457 L345 518 L300 518 L300 560 Z M132 294 C132 307 136 317 143 325 C150 332 159 336 170 336 C181 336 190 332 197 325 C204 317 208 307 208 294 L208 120 C208 107 204 97 197 89 C190 81 181 78 170 78 C159 78 150 81 143 89 C136 97 132 107 132 120 L132 294 Z " />
<glyph glyph-name="Edotaccent" unicode="&#x116;" horiz-adv-x="291" d="M264 0 L264 96 L137 96 L137 242 L236 242 L236 333 L137 333 L137 463 L260 463 L260 560 L40 560 L40 0 L264 0 Z M105 729 C96 719 91 707 91 692 C91 677 96 665 105 655 C115 646 127 641 142 641 C157 641 169 646 178 655 C188 665 193 677 193 692 C193 707 188 719 178 729 C169 738 157 743 142 743 C127 743 115 738 105 729 L105 729 Z " />
<glyph glyph-name="edotaccent" unicode="&#x117;" horiz-adv-x="333" d="M207 120 C207 106 204 96 197 89 C190 81 181 77 169 77 C158 77 149 81 142 89 C135 96 132 106 132 120 L132 194 L293 194 L293 298 C293 334 281 364 257 386 C233 409 203 420 168 420 C133 420 103 409 77 385 C52 362 40 332 40 295 L40 115 C40 78 52 48 76 26 C100 3 129 -8 165 -8 C200 -8 230 3 255 27 C280 51 293 81 293 117 L293 148 L207 148 L207 120 Z M132 302 C132 315 135 325 142 333 C149 341 158 344 169 344 C181 344 190 341 197 333 C204 325 207 315 207 302 L207 254 L132 254 L132 302 Z M127 557 C118 547 113 535 113 520 C113 505 118 493 127 483 C137 474 149 469 164 469 C179 469 191 474 200 483 C210 493 215 505 215 520 C215 535 210 547 200 557 C191 566 179 571 164 571 C149 571 137 566 127 557 L127 557 Z " />
<glyph glyph-name="Eogonek" unicode="&#x118;" horiz-adv-x="291" d="M264 0 L264 96 L137 96 L137 242 L236 242 L236 333 L137 333 L137 463 L260 463 L260 560 L40 560 L40 0 L264 0 Z M187 34 L172 26 C163 21 153 11 143 -4 C133 -18 128 -35 128 -54 C128 -81 139 -103 159 -121 C179 -139 204 -147 235 -147 C250 -147 262 -146 269 -142 L269 -83 L244 -85 C229 -85 217 -81 208 -72 C199 -64 194 -53 194 -39 C194 -20 200 -7 213 1 L187 34 Z " />
<glyph glyph-name="eogonek" unicode="&#x119;" horiz-adv-x="333" d="M207 120 C207 106 204 96 197 89 C190 81 181 77 169 77 C158 77 149 81 142 89 C135 96 132 106 132 120 L132 194 L293 194 L293 298 C293 334 281 364 257 386 C233 409 203 420 168 420 C133 420 103 409 77 385 C52 362 40 332 40 295 L40 115 C40 78 52 48 76 26 C100 3 129 -8 165 -8 C200 -8 230 3 255 27 C280 51 293 81 293 117 L293 148 L207 148 L207 120 Z M132 302 C132 315 135 325 142 333 C149 341 158 344 169 344 C181 344 190 341 197 333 C204 325 207 315 207 302 L207 254 L132 254 L132 302 Z M190 34 L175 26 C166 21 156 11 146 -4 C136 -18 131 -35 131 -54 C131 -81 142 -103 162 -121 C182 -139 207 -147 238 -147 C253 -147 265 -146 272 -142 L272 -83 L247 -85 C232 -85 220 -81 211 -72 C202 -64 197 -53 197 -39 C197 -20 203 -7 216 1 L190 34 Z " />
<glyph glyph-name="Ecaron" unicode="&#x11a;" horiz-adv-x="291" d="M264 0 L264 96 L137 96 L137 242 L236 242 L236 333 L137 333 L137 463 L260 463 L260 560 L40 560 L40 0 L264 0 Z M272 739 L205 739 L163 671 L120 739 L49 739 L127 605 L195 605 L272 739 Z " />
<glyph glyph-name="ecaron" unicode="&#x11b;" horiz-adv-x="333" d="M207 120 C207 106 204 96 197 89 C190 81 181 77 169 77 C158 77 149 81 142 89 C135 96 132 106 132 120 L132 194 L293 194 L293 298 C293 334 281 364 257 386 C233 409 203 420 168 420 C133 420 103 409 77 385 C52 362 40 332 40 295 L40 115 C40 78 52 48 76 26 C100 3 129 -8 165 -8 C200 -8 230 3 255 27 C280 51 293 81 293 117 L293 148 L207 148 L207 120 Z M132 302 C132 315 135 325 142 333 C149 341 158 344 169 344 C181 344 190 341 197 333 C204 325 207 315 207 302 L207 254 L132 254 L132 302 Z M271 591 L204 591 L162 523 L119 591 L48 591 L126 457 L194 457 L271 591 Z " />
<glyph glyph-name="Itilde" unicode="&#x128;" horiz-adv-x="179" d="M40 0 L140 0 L140 560 L40 560 L40 0 Z M4 604 L5 614 C5 621 8 628 12 635 C16 642 22 645 30 645 C40 645 51 641 61 633 C72 625 83 617 96 609 C109 601 124 596 141 596 C157 596 172 601 184 609 C196 618 205 627 211 638 C217 648 222 660 225 674 C228 688 230 698 230 703 C231 708 231 712 231 716 L166 716 L166 705 C165 698 163 691 158 684 C153 677 148 674 140 674 C129 674 113 682 92 698 C71 715 50 723 29 723 C12 723 -2 719 -14 710 C-27 701 -36 692 -41 682 C-47 671 -51 659 -54 645 C-58 631 -59 622 -60 616 C-60 611 -61 607 -61 604 L4 604 Z " />
<glyph glyph-name="Iogonek" unicode="&#x12e;" horiz-adv-x="180" d="M40 0 L140 0 L140 560 L40 560 L40 0 Z M99 34 L84 26 C75 21 65 11 55 -4 C45 -18 40 -35 40 -54 C40 -81 51 -103 71 -121 C91 -139 116 -147 147 -147 C162 -147 174 -146 181 -142 L181 -83 L156 -85 C141 -85 129 -81 120 -72 C111 -64 106 -53 106 -39 C106 -20 112 -7 125 1 L99 34 Z " />
<glyph glyph-name="iogonek" unicode="&#x12f;" horiz-adv-x="173" d="M45 558 C34 547 29 533 29 517 C29 501 34 488 45 477 C57 465 70 460 86 460 C102 460 116 465 127 477 C139 488 145 501 145 517 C145 533 139 547 127 558 C116 570 102 576 86 576 C70 576 57 570 45 558 L45 558 Z M40 0 L133 0 L133 412 L40 412 L40 0 Z M95 34 L80 26 C71 21 61 11 51 -4 C41 -18 36 -35 36 -54 C36 -81 47 -103 67 -121 C87 -139 112 -147 143 -147 C158 -147 170 -146 177 -142 L177 -83 L152 -85 C137 -85 125 -81 116 -72 C107 -64 102 -53 102 -39 C102 -20 108 -7 121 1 L95 34 Z " />
<glyph glyph-name="Lacute" unicode="&#x139;" horiz-adv-x="258" d="M248 0 L248 96 L138 96 L138 560 L40 560 L40 0 L248 0 Z M92 634 L162 634 L225 768 L129 768 L92 634 Z " />
<glyph glyph-name="lacute" unicode="&#x13a;" horiz-adv-x="174" d="M40 0 L134 0 L134 560 L40 560 L40 0 Z M30 562 L100 562 L163 696 L67 696 L30 562 Z " />
<glyph glyph-name="Lcaron" unicode="&#x13d;" horiz-adv-x="258" d="M248 0 L248 96 L138 96 L138 560 L40 560 L40 0 L248 0 L248 0 Z " />
<glyph glyph-name="Lslash" unicode="&#x141;" horiz-adv-x="324" d="M291 0 L291 97 L182 97 L182 272 L269 289 L269 350 L182 333 L182 560 L83 560 L83 314 L30 304 L30 243 L83 254 L83 0 L291 0 L291 0 Z " />
<glyph glyph-name="lslash" unicode="&#x142;" horiz-adv-x="274" d="M86 0 L179 0 L179 273 L234 285 L234 347 L179 335 L179 560 L86 560 L86 313 L40 304 L40 243 L86 252 L86 0 L86 0 Z " />
<glyph glyph-name="Nacute" unicode="&#x143;" horiz-adv-x="364" d="M238 0 L324 0 L324 560 L238 560 L238 234 L132 560 L40 560 L40 0 L126 0 L126 345 L238 0 Z M103 615 L173 615 L236 749 L140 749 L103 615 Z " />
<glyph glyph-name="nacute" unicode="&#x144;" horiz-adv-x="336" d="M132 295 C132 308 135 318 142 325 C149 332 158 336 170 336 C192 336 204 322 204 295 L204 0 L296 0 L296 308 C296 345 288 373 271 392 C254 411 232 420 205 420 C166 420 123 390 123 326 L123 412 L40 412 L40 0 L132 0 L132 295 Z M89 434 L159 434 L222 568 L126 568 L89 434 Z " />
<glyph glyph-name="Ncaron" unicode="&#x147;" horiz-adv-x="364" d="M238 0 L324 0 L324 560 L238 560 L238 234 L132 560 L40 560 L40 0 L126 0 L126 345 L238 0 Z M267 733 L200 733 L158 665 L115 733 L44 733 L122 599 L190 599 L267 733 Z " />
<glyph glyph-name="ncaron" unicode="&#x148;" horiz-adv-x="336" d="M132 295 C132 308 135 318 142 325 C149 332 158 336 170 336 C192 336 204 322 204 295 L204 0 L296 0 L296 308 C296 345 288 373 271 392 C254 411 232 420 205 420 C166 420 123 390 123 326 L123 412 L40 412 L40 0 L132 0 L132 295 Z M274 595 L207 595 L165 527 L122 595 L51 595 L129 461 L197 461 L274 595 Z " />
<glyph glyph-name="Ohungarumlaut" unicode="&#x150;" horiz-adv-x="360" d="M40 129 C40 88 53 54 79 29 C105 4 138 -8 178 -8 C218 -8 252 5 279 30 C306 56 320 90 320 132 L320 430 C320 472 307 505 281 530 C255 555 222 568 181 568 C142 568 108 555 81 529 C54 503 40 469 40 427 L40 129 Z M138 428 C138 444 141 455 149 464 C157 472 167 476 180 476 C193 476 203 472 210 464 C218 455 222 444 222 428 L222 131 C222 116 218 104 210 96 C203 87 193 83 180 83 C167 83 157 87 149 96 C141 104 138 116 138 131 L138 428 Z M64 611 L131 611 L184 746 L91 746 L64 611 Z M197 611 L264 611 L317 746 L224 746 L197 611 Z " />
<glyph glyph-name="ohungarumlaut" unicode="&#x151;" horiz-adv-x="339" d="M40 117 C40 80 52 50 77 26 C101 3 132 -8 168 -8 C204 -8 235 4 261 28 C286 52 299 83 299 121 L299 295 C299 332 287 363 262 386 C238 409 207 420 171 420 C135 420 104 409 78 385 C53 361 40 330 40 292 L40 117 Z M132 293 C132 306 135 316 142 324 C149 332 158 336 170 336 C181 336 190 332 197 324 C204 316 207 306 207 293 L207 120 C207 106 204 96 197 89 C190 81 181 77 170 77 C158 77 149 81 142 89 C135 96 132 106 132 120 L132 293 Z M44 452 L111 452 L164 587 L71 587 L44 452 Z M177 452 L244 452 L297 587 L204 587 L177 452 Z " />
<glyph glyph-name="OE" unicode="&#x152;" horiz-adv-x="453" d="M442 0 L442 96 L316 96 L316 242 L413 242 L413 332 L316 332 L316 463 L437 463 L437 560 L183 560 C140 560 105 547 79 523 C53 498 40 463 40 417 L40 139 C40 94 53 59 78 35 C103 12 137 0 181 0 L442 0 Z M218 91 L188 91 C154 91 138 109 138 147 L138 412 C138 450 154 468 188 468 L218 468 L218 91 Z " />
<glyph glyph-name="oe" unicode="&#x153;" horiz-adv-x="500" d="M374 120 C374 106 371 96 364 89 C357 81 348 77 337 77 C326 77 317 81 310 89 C303 96 299 106 299 120 L299 194 L460 194 L460 298 C460 334 448 364 424 387 C400 409 370 421 335 421 C302 421 275 410 254 388 C232 410 205 421 171 421 C135 421 104 409 78 384 C53 360 40 330 40 292 L40 117 C40 80 52 50 77 26 C101 3 132 -8 168 -8 C201 -8 228 2 250 24 C271 2 298 -8 332 -8 C367 -8 397 4 422 27 C447 51 460 81 460 117 L460 148 L374 148 L374 120 Z M132 293 C132 306 135 316 142 324 C149 332 158 336 170 336 C181 336 190 332 197 324 C204 316 207 306 207 293 L207 120 C207 106 204 96 197 89 C190 81 181 77 170 77 C158 77 149 81 142 89 C135 96 132 106 132 120 L132 293 Z M299 302 C299 315 303 325 310 333 C317 341 326 344 337 344 C348 344 357 341 364 333 C371 325 374 315 374 302 L374 254 L299 254 L299 302 Z " />
<glyph glyph-name="Racute" unicode="&#x154;" horiz-adv-x="341" d="M316 353 L316 414 C316 462 303 498 277 523 C251 547 215 560 169 560 L40 560 L40 0 L138 0 L138 214 L174 214 C187 214 197 210 204 202 C210 194 214 184 214 170 L214 0 L309 0 L309 175 C309 209 300 237 281 259 C304 281 316 312 316 353 L316 353 Z M218 352 C218 329 211 313 199 304 C191 298 181 296 168 296 L138 296 L138 469 L168 469 C201 469 218 450 218 413 L218 352 L218 352 Z M139 634 L209 634 L272 768 L176 768 L139 634 Z " />
<glyph glyph-name="racute" unicode="&#x155;" horiz-adv-x="244" d="M218 420 C172 420 129 380 125 326 L125 412 L40 412 L40 0 L133 0 L133 248 C133 292 154 314 198 314 L218 314 L218 420 Z M97 434 L167 434 L230 568 L134 568 L97 434 Z " />
<glyph glyph-name="Rcaron" unicode="&#x158;" horiz-adv-x="341" d="M316 353 L316 414 C316 462 303 498 277 523 C251 547 215 560 169 560 L40 560 L40 0 L138 0 L138 214 L174 214 C187 214 197 210 204 202 C210 194 214 184 214 170 L214 0 L309 0 L309 175 C309 209 300 237 281 259 C304 281 316 312 316 353 L316 353 Z M218 352 C218 329 211 313 199 304 C191 298 181 296 168 296 L138 296 L138 469 L168 469 C201 469 218 450 218 413 L218 352 L218 352 Z M293 753 L226 753 L184 685 L141 753 L70 753 L148 619 L216 619 L293 753 Z " />
<glyph glyph-name="rcaron" unicode="&#x159;" horiz-adv-x="244" d="M218 420 C172 420 129 380 125 326 L125 412 L40 412 L40 0 L133 0 L133 248 C133 292 154 314 198 314 L218 314 L218 420 Z M265 604 L198 604 L156 536 L113 604 L42 604 L120 470 L188 470 L265 604 Z " />
<glyph glyph-name="Sacute" unicode="&#x15a;" horiz-adv-x="318" d="M116 172 L22 172 L22 126 C22 85 35 52 60 28 C86 4 118 -8 157 -8 C197 -8 231 4 258 30 C285 56 299 89 299 131 C299 164 291 196 275 225 C259 255 235 285 203 316 C172 346 152 369 141 386 C130 402 124 419 124 436 C124 449 128 460 135 467 C142 475 151 479 163 479 C174 479 183 475 190 467 C197 458 200 447 200 433 L200 400 L295 400 L295 437 C295 477 282 508 257 532 C233 556 202 568 164 568 C125 568 93 555 66 530 C40 506 27 473 27 433 C27 375 57 317 119 259 C151 228 172 203 184 185 C195 166 200 147 200 128 C200 113 196 102 189 93 C181 84 171 80 159 80 C146 80 136 84 128 93 C120 102 116 115 116 131 L116 172 Z M106 634 L176 634 L239 768 L143 768 L106 634 Z " />
<glyph glyph-name="sacute" unicode="&#x15b;" horiz-adv-x="307" d="M189 288 L277 288 L277 302 C277 337 265 365 242 387 C218 409 189 420 154 420 C119 420 90 410 66 388 C42 366 30 340 30 308 C30 253 60 210 119 181 C147 166 166 154 175 145 C184 135 189 124 189 112 C189 99 186 89 179 82 C172 75 163 71 152 71 C140 71 131 75 124 82 C117 90 114 101 114 114 L114 132 L25 132 L25 116 C25 79 37 49 62 26 C87 3 117 -8 153 -8 C189 -8 219 3 244 27 C269 50 281 80 281 116 C281 171 249 214 186 246 C161 258 144 269 135 278 C126 287 122 298 122 309 C122 319 125 327 131 333 C137 339 145 341 156 341 C165 341 173 338 180 331 C186 324 189 315 189 303 L189 288 Z M112 434 L182 434 L245 568 L149 568 L112 434 Z " />
<glyph glyph-name="Scedilla" unicode="&#x15e;" horiz-adv-x="312" d="M116 172 L22 172 L22 126 C22 85 35 52 60 28 C86 4 118 -8 157 -8 C197 -8 231 4 258 30 C285 56 299 89 299 131 C299 164 291 196 275 225 C259 255 235 285 203 316 C172 346 152 369 141 386 C130 402 124 419 124 436 C124 449 128 460 135 467 C142 475 151 479 163 479 C174 479 183 475 190 467 C197 458 200 447 200 433 L200 400 L295 400 L295 437 C295 477 282 508 257 532 C233 556 202 568 164 568 C125 568 93 555 66 530 C40 506 27 473 27 433 C27 375 57 317 119 259 C151 228 172 203 184 185 C195 166 200 147 200 128 C200 113 196 102 189 93 C181 84 171 80 159 80 C146 80 136 84 128 93 C120 102 116 115 116 131 L116 172 Z M139 -2 L144 -7 C148 -10 152 -15 156 -23 C160 -31 162 -39 162 -48 C162 -62 157 -74 148 -83 C139 -92 127 -96 112 -96 C99 -96 90 -95 85 -93 L85 -154 L90 -154 C93 -155 98 -156 104 -157 C111 -158 117 -158 124 -158 C156 -158 183 -149 203 -132 C223 -114 233 -90 233 -59 C233 -47 231 -35 227 -25 C223 -14 219 -6 214 0 C209 6 203 12 196 18 C190 23 186 26 183 28 C181 29 179 30 177 31 L139 -2 Z " />
<glyph glyph-name="Scaron" unicode="&#x160;" horiz-adv-x="315" d="M113 172 L19 172 L19 126 C19 85 32 52 57 28 C83 4 115 -8 154 -8 C194 -8 228 4 255 30 C282 56 296 89 296 131 C296 164 288 196 272 225 C256 255 232 285 200 316 C169 346 149 369 138 386 C127 402 121 419 121 436 C121 449 125 460 132 467 C139 475 148 479 160 479 C171 479 180 475 187 467 C194 458 197 447 197 433 L197 400 L292 400 L292 437 C292 477 279 508 254 532 C230 556 199 568 161 568 C122 568 90 555 63 530 C37 506 24 473 24 433 C24 375 54 317 116 259 C148 228 169 203 181 185 C192 166 197 147 197 128 C197 113 193 102 186 93 C178 84 168 80 156 80 C143 80 133 84 125 93 C117 102 113 115 113 131 L113 172 Z M267 732 L200 732 L158 664 L115 732 L44 732 L122 598 L190 598 L267 732 Z " />
<glyph glyph-name="scaron" unicode="&#x161;" horiz-adv-x="262" d="M153 288 L241 288 L241 302 C241 337 229 365 206 387 C182 409 153 420 118 420 C83 420 54 410 30 388 C6 366 -6 340 -6 308 C-6 253 24 210 83 181 C111 166 130 154 139 145 C148 135 153 124 153 112 C153 99 150 89 143 82 C136 75 127 71 116 71 C104 71 95 75 88 82 C81 90 78 101 78 114 L78 132 L-11 132 L-11 116 C-11 79 1 49 26 26 C51 3 81 -8 117 -8 C153 -8 183 3 208 27 C233 50 245 80 245 116 C245 171 213 214 150 246 C125 258 108 269 99 278 C90 287 86 298 86 309 C86 319 89 327 95 333 C101 339 109 341 120 341 C129 341 137 338 144 331 C150 324 153 315 153 303 L153 288 Z M242 580 L175 580 L133 512 L90 580 L19 580 L97 446 L165 446 L242 580 Z " />
<glyph glyph-name="Tcaron" unicode="&#x164;" horiz-adv-x="297" d="M284 463 L284 560 L14 560 L14 463 L99 463 L99 0 L199 0 L199 463 L284 463 Z M254 735 L187 735 L145 667 L102 735 L31 735 L109 601 L177 601 L254 735 Z " />
<glyph glyph-name="utilde" unicode="&#x169;" horiz-adv-x="336" d="M204 117 C204 104 200 94 193 87 C187 80 177 77 166 77 C143 77 132 90 132 117 L132 412 L40 412 L40 104 C40 67 48 40 65 21 C82 1 104 -8 131 -8 C169 -8 213 22 213 86 L213 0 L296 0 L296 412 L204 412 L204 117 Z M85 463 L86 473 C86 480 89 487 93 494 C97 501 103 504 111 504 C121 504 132 500 142 492 C153 484 164 476 177 468 C190 460 205 455 222 455 C238 455 253 460 265 468 C277 477 286 486 292 497 C298 507 303 519 306 533 C309 547 311 557 311 562 C312 567 312 571 312 575 L247 575 L247 564 C246 557 244 550 239 543 C234 536 229 533 221 533 C210 533 194 541 173 557 C152 574 131 582 110 582 C93 582 79 578 67 569 C54 560 45 551 40 541 C34 530 30 518 27 504 C23 490 22 481 21 475 C21 470 20 466 20 463 L85 463 Z " />
<glyph glyph-name="Uring" unicode="&#x16e;" horiz-adv-x="352" d="M214 560 L214 127 C214 113 211 102 204 94 C198 87 189 83 177 83 C165 83 156 87 149 94 C142 102 139 113 139 127 L139 560 L40 560 L40 125 C40 85 53 52 78 28 C104 4 136 -8 175 -8 C213 -8 246 4 272 29 C299 54 312 87 312 128 L312 560 L214 560 Z M119 725 C105 712 98 695 98 674 C98 654 105 637 119 624 C133 610 151 603 173 603 C194 603 212 610 226 624 C240 637 247 654 247 674 C247 695 240 712 226 725 C212 739 194 746 173 746 C151 746 133 739 119 725 L119 725 Z M173 644 C163 644 156 647 150 653 C144 659 142 666 142 674 C142 684 144 691 150 697 C156 702 163 705 173 705 C181 705 188 702 194 697 C200 691 203 684 203 674 C203 666 200 659 194 653 C188 647 181 644 173 644 L173 644 Z " />
<glyph glyph-name="uring" unicode="&#x16f;" horiz-adv-x="329" d="M197 117 C197 104 193 94 186 87 C180 80 170 77 159 77 C136 77 125 90 125 117 L125 412 L33 412 L33 104 C33 67 41 40 58 21 C75 1 97 -8 124 -8 C162 -8 206 22 206 86 L206 0 L289 0 L289 412 L197 412 L197 117 Z M108 555 C94 542 87 525 87 504 C87 484 94 467 108 454 C122 440 140 433 162 433 C183 433 201 440 215 454 C229 467 236 484 236 504 C236 525 229 542 215 555 C201 569 183 576 162 576 C140 576 122 569 108 555 L108 555 Z M162 474 C152 474 145 477 139 483 C133 489 131 496 131 504 C131 514 133 521 139 527 C145 532 152 535 162 535 C170 535 177 532 183 527 C189 521 192 514 192 504 C192 496 189 489 183 483 C177 477 170 474 162 474 L162 474 Z " />
<glyph glyph-name="Uhungarumlaut" unicode="&#x170;" horiz-adv-x="352" d="M214 560 L214 127 C214 113 211 102 204 94 C198 87 189 83 177 83 C165 83 156 87 149 94 C142 102 139 113 139 127 L139 560 L40 560 L40 125 C40 85 53 52 78 28 C104 4 136 -8 175 -8 C213 -8 246 4 272 29 C299 54 312 87 312 128 L312 560 L214 560 L214 560 Z " />
<glyph glyph-name="uhungarumlaut" unicode="&#x171;" horiz-adv-x="336" d="M204 117 C204 104 200 94 193 87 C187 80 177 77 166 77 C143 77 132 90 132 117 L132 412 L40 412 L40 104 C40 67 48 40 65 21 C82 1 104 -8 131 -8 C169 -8 213 22 213 86 L213 0 L296 0 L296 412 L204 412 L204 117 Z M45 451 L112 451 L165 586 L72 586 L45 451 Z M178 451 L245 451 L298 586 L205 586 L178 451 Z " />
<glyph glyph-name="Uogonek" unicode="&#x172;" horiz-adv-x="352" d="M214 560 L214 127 C214 113 211 102 204 94 C198 87 189 83 177 83 C165 83 156 87 149 94 C142 102 139 113 139 127 L139 560 L40 560 L40 125 C40 85 53 52 78 28 C104 4 136 -8 175 -8 C213 -8 246 4 272 29 C299 54 312 87 312 128 L312 560 L214 560 Z M207 34 L192 26 C183 21 173 11 163 -4 C153 -18 148 -35 148 -54 C148 -81 159 -103 179 -121 C199 -139 224 -147 255 -147 C270 -147 282 -146 289 -142 L289 -83 L264 -85 C249 -85 237 -81 228 -72 C219 -64 214 -53 214 -39 C214 -20 220 -7 233 1 L207 34 Z " />
<glyph glyph-name="uogonek" unicode="&#x173;" horiz-adv-x="336" d="M204 117 C204 104 200 94 193 87 C187 80 177 77 166 77 C143 77 132 90 132 117 L132 412 L40 412 L40 104 C40 67 48 40 65 21 C82 1 104 -8 131 -8 C169 -8 213 22 213 86 L213 0 L296 0 L296 412 L204 412 L204 117 Z M269 35 L254 27 C245 22 235 12 225 -3 C215 -17 210 -34 210 -53 C210 -80 221 -102 241 -120 C261 -138 286 -146 317 -146 C332 -146 344 -145 351 -141 L351 -82 L326 -84 C311 -84 299 -80 290 -71 C281 -63 276 -52 276 -38 C276 -19 282 -6 295 2 L269 35 Z " />
<glyph glyph-name="Ydieresis" unicode="&#x178;" horiz-adv-x="267" d="M86 0 L183 0 L183 208 L285 560 L186 560 L138 336 L90 560 L-15 560 L86 208 L86 0 Z M65 654 C38 654 15 633 15 603 C15 576 35 552 65 552 C92 552 117 572 117 603 C117 631 95 653 65 654 L65 654 Z M199 654 C172 654 149 633 149 603 C149 576 168 552 199 552 C227 552 250 572 250 603 C250 630 229 654 199 654 L199 654 Z " />
<glyph glyph-name="Zacute" unicode="&#x179;" horiz-adv-x="278" d="M264 0 L264 91 L120 91 L264 482 L264 560 L28 560 L28 469 L159 469 L16 76 L16 0 L264 0 Z M97 634 L167 634 L230 768 L134 768 L97 634 Z " />
<glyph glyph-name="zacute" unicode="&#x17a;" horiz-adv-x="258" d="M12 65 L12 0 L236 0 L236 79 L109 79 L236 350 L236 412 L24 412 L24 334 L137 334 L12 65 Z M72 434 L142 434 L205 568 L109 568 L72 434 Z " />
<glyph glyph-name="Zdotaccent" unicode="&#x17b;" horiz-adv-x="277" d="M265 0 L265 91 L121 91 L265 482 L265 560 L29 560 L29 469 L160 469 L17 76 L17 0 L265 0 Z M116 757 C107 747 102 735 102 720 C102 705 107 693 116 683 C126 674 138 669 153 669 C168 669 180 674 189 683 C199 693 204 705 204 720 C204 735 199 747 189 757 C180 766 168 771 153 771 C138 771 126 766 116 757 L116 757 Z " />
<glyph glyph-name="zdotaccent" unicode="&#x17c;" horiz-adv-x="251" d="M13 65 L13 0 L237 0 L237 79 L110 79 L237 350 L237 412 L25 412 L25 334 L138 334 L13 65 Z M91 557 C82 547 77 535 77 520 C77 505 82 493 91 483 C101 474 113 469 128 469 C143 469 155 474 164 483 C174 493 179 505 179 520 C179 535 174 547 164 557 C155 566 143 571 128 571 C113 571 101 566 91 557 L91 557 Z " />
<glyph glyph-name="Zcaron" unicode="&#x17d;" horiz-adv-x="271" d="M257 0 L257 91 L113 91 L257 482 L257 560 L21 560 L21 469 L152 469 L9 76 L9 0 L257 0 Z M255 733 L188 733 L146 665 L103 733 L32 733 L110 599 L178 599 L255 733 Z " />
<glyph glyph-name="zcaron" unicode="&#x17e;" horiz-adv-x="245" d="M10 65 L10 0 L234 0 L234 79 L107 79 L234 350 L234 412 L22 412 L22 334 L135 334 L10 65 Z M234 578 L167 578 L125 510 L82 578 L11 578 L89 444 L157 444 L234 578 Z " />
<glyph glyph-name="florin" unicode="&#x192;" horiz-adv-x="318" d="M169 -88 L196 245 L277 245 L277 304 L201 304 L210 421 C213 455 228 473 256 473 C270 473 287 473 287 473 L287 560 C287 560 246 560 237 560 C202 560 174 550 154 530 C133 510 121 481 118 443 L107 304 L40 304 L40 245 L102 245 L76 -88 L169 -88 L169 -88 Z " />
<glyph glyph-name="circumflex" unicode="&#x2c6;" horiz-adv-x="250" d="M14 426 L81 426 L124 493 L166 426 L238 426 L160 560 L92 560 L14 426 L14 426 Z " />
<glyph glyph-name="caron" unicode="&#x2c7;" horiz-adv-x="296" d="M259 702 L192 702 L150 634 L107 702 L36 702 L114 568 L182 568 L259 702 L259 702 Z " />
<glyph glyph-name="breve" unicode="&#x2d8;" horiz-adv-x="274" d="M41 574 L41 536 C41 507 50 483 68 466 C85 448 109 439 138 439 C167 439 190 448 208 467 C226 485 235 508 235 538 L235 574 L172 574 L172 534 C172 522 169 513 163 505 C157 498 149 494 138 494 C114 494 102 507 102 534 L102 574 L41 574 L41 574 Z " />
<glyph glyph-name="dotaccent" unicode="&#x2d9;" horiz-adv-x="114" d="M20 557 C11 547 6 535 6 520 C6 505 11 493 20 483 C30 474 42 469 57 469 C72 469 84 474 93 483 C103 493 108 505 108 520 C108 535 103 547 93 557 C84 566 72 571 57 571 C42 571 30 566 20 557 L20 557 Z " />
<glyph glyph-name="ring" unicode="&#x2da;" horiz-adv-x="189" d="M40 525 C26 512 19 495 19 474 C19 454 26 437 40 424 C54 410 72 403 94 403 C115 403 133 410 147 424 C161 437 168 454 168 474 C168 495 161 512 147 525 C133 539 115 546 94 546 C72 546 54 539 40 525 L40 525 Z M94 444 C84 444 77 447 71 453 C65 459 63 466 63 474 C63 484 65 491 71 497 C77 502 84 505 94 505 C102 505 109 502 115 497 C121 491 124 484 124 474 C124 466 121 459 115 453 C109 447 102 444 94 444 L94 444 Z " />
<glyph glyph-name="ogonek" unicode="&#x2db;" horiz-adv-x="168" d="M67 34 L52 26 C43 21 33 11 23 -4 C13 -18 8 -35 8 -54 C8 -81 19 -103 39 -121 C59 -139 84 -147 115 -147 C130 -147 142 -146 149 -142 L149 -83 L124 -85 C109 -85 97 -81 88 -72 C79 -64 74 -53 74 -39 C74 -20 80 -7 93 1 L67 34 L67 34 Z " />
<glyph glyph-name="tilde" unicode="&#x2dc;" horiz-adv-x="323" d="M81 457 L82 467 C82 474 85 481 89 488 C93 495 99 498 107 498 C117 498 128 494 138 486 C149 478 160 470 173 462 C186 454 201 449 218 449 C234 449 249 454 261 462 C273 471 282 480 288 491 C294 501 299 513 302 527 C305 541 307 551 307 556 C308 561 308 565 308 569 L243 569 L243 558 C242 551 240 544 235 537 C230 530 225 527 217 527 C206 527 190 535 169 551 C148 568 127 576 106 576 C89 576 75 572 63 563 C50 554 41 545 36 535 C30 524 26 512 23 498 C19 484 18 475 17 469 C17 464 16 460 16 457 L81 457 L81 457 Z " />
<glyph glyph-name="hungarumlaut" unicode="&#x2dd;" horiz-adv-x="281" d="M17 433 L84 433 L137 568 L44 568 L17 433 Z M150 433 L217 433 L270 568 L177 568 L150 433 Z " />
<glyph glyph-name="endash" unicode="&#x2013;" horiz-adv-x="392" d="M352 214 L352 300 L40 300 L40 214 L352 214 L352 214 Z " />
<glyph glyph-name="emdash" unicode="&#x2014;" horiz-adv-x="448" d="M408 214 L408 300 L40 300 L40 214 L408 214 L408 214 Z " />
<glyph glyph-name="quoteleft" unicode="&#x2018;" horiz-adv-x="143" d="M56 560 L20 344 L122 344 L129 560 L56 560 L56 560 Z " />
<glyph glyph-name="quoteright" unicode="&#x2019;" horiz-adv-x="133" d="M87 344 L123 560 L21 560 L14 344 L87 344 L87 344 Z " />
<glyph glyph-name="quotedblleft" unicode="&#x201c;" horiz-adv-x="273" d="M48 560 L12 344 L114 344 L121 560 L48 560 Z M189 560 L153 344 L255 344 L262 560 L189 560 Z " />
<glyph glyph-name="quotedblright" unicode="&#x201d;" horiz-adv-x="275" d="M90 344 L126 560 L24 560 L17 344 L90 344 Z M230 344 L266 560 L165 560 L158 344 L230 344 Z " />
<glyph glyph-name="daggerdbl" unicode="&#x2021;" horiz-adv-x="281" d="M26 273 L26 206 L103 206 L103 128 L177 128 L177 206 L254 206 L254 273 L177 273 L177 358 L254 358 L254 425 L177 425 L177 504 L103 504 L103 425 L26 425 L26 358 L103 358 L103 273 L26 273 L26 273 Z " />
<glyph glyph-name="bullet" unicode="&#x2022;" horiz-adv-x="258" d="M59 391 C39 371 29 347 29 319 C29 291 38 267 58 248 C77 229 100 219 129 219 C157 219 181 229 201 248 C221 268 230 292 230 321 C230 349 221 372 202 392 C183 411 159 420 130 420 C102 420 78 410 59 391 L59 391 Z " />
<glyph glyph-name="ellipsis" unicode="&#x2026;" horiz-adv-x="421" d="M77 48 C47 48 20 21 20 -11 C20 -27 25 -40 37 -52 C48 -63 61 -68 77 -68 C93 -68 107 -63 119 -52 C130 -40 136 -27 136 -11 C136 5 130 19 119 30 C107 42 93 48 77 48 L77 48 Z M209 48 C179 48 152 21 152 -11 C152 -27 157 -40 169 -52 C180 -63 193 -68 209 -68 C225 -68 239 -63 251 -52 C262 -40 268 -27 268 -11 C268 5 262 19 251 30 C239 42 225 48 209 48 L209 48 Z M342 48 C312 48 285 21 285 -11 C285 -27 290 -40 302 -52 C313 -63 326 -68 342 -68 C358 -68 372 -63 384 -52 C395 -40 401 -27 401 -11 C401 5 395 19 384 30 C372 42 358 48 342 48 L342 48 Z " />
<glyph glyph-name="perthousand" unicode="&#x2030;" horiz-adv-x="685" d="M130 488 C100 488 75 478 55 459 C35 440 25 415 25 386 C25 356 35 332 54 313 C74 294 99 284 128 284 C158 284 182 294 202 314 C222 333 232 358 232 387 C232 417 223 441 203 460 C184 479 159 488 130 488 L130 488 Z M50 0 L112 0 L408 480 L346 480 L50 0 Z M129 347 C118 347 109 350 102 358 C94 365 91 375 91 387 C91 398 94 407 102 415 C109 422 118 426 129 426 C140 426 149 422 156 415 C163 407 167 398 167 387 C167 375 163 365 156 358 C149 350 140 347 129 347 L129 347 Z M330 195 C301 195 276 186 255 166 C235 147 225 122 225 93 C225 64 235 40 255 21 C274 2 299 -8 328 -8 C358 -8 383 2 403 21 C423 41 433 65 433 95 C433 124 423 148 404 167 C385 186 360 195 330 195 L330 195 Z M329 55 C318 55 310 58 302 65 C295 73 292 82 292 94 C292 106 295 115 302 123 C310 130 318 134 329 134 C340 134 350 130 357 123 C364 115 367 106 367 94 C367 82 364 73 357 65 C350 58 340 55 329 55 L329 55 Z M566 195 C537 195 512 186 492 166 C471 147 461 122 461 93 C461 64 471 40 491 21 C511 2 535 -8 564 -8 C594 -8 619 2 639 21 C659 41 669 65 669 95 C669 124 659 148 640 167 C620 186 596 195 566 195 L566 195 Z M565 55 C555 55 546 58 538 65 C531 73 527 82 527 94 C527 106 531 115 538 123 C546 130 555 134 565 134 C576 134 585 130 593 123 C600 115 604 106 604 94 C604 82 600 73 593 65 C585 58 576 55 565 55 L565 55 Z " />
<glyph glyph-name="guilsinglleft" unicode="&#x2039;" horiz-adv-x="253" d="M233 408 L184 459 L29 312 L29 284 L184 139 L233 192 L133 300 L233 408 L233 408 Z " />
<glyph glyph-name="guilsinglright" unicode="&#x203a;" horiz-adv-x="267" d="M24 193 L72 143 L228 289 L228 317 L72 463 L24 409 L124 301 L24 193 L24 193 Z " />
<glyph glyph-name="Euro" unicode="&#x20ac;" horiz-adv-x="381" d="M257 122 C257 93 245 79 221 79 C197 79 184 93 184 122 L184 209 L295 209 L295 259 L184 259 L184 300 L311 300 L311 350 L184 350 L184 436 C184 466 197 481 221 481 C245 481 257 466 257 436 L257 392 L348 392 L348 444 C348 481 336 510 312 533 C288 556 258 568 223 568 C187 568 156 555 130 531 C104 507 91 476 91 437 L91 350 L40 350 L40 300 L91 300 L91 259 L40 259 L40 209 L91 209 L91 119 C91 81 104 50 128 26 C153 3 183 -8 220 -8 C255 -8 285 4 310 27 C335 51 348 82 348 119 L348 168 L257 168 L257 122 L257 122 Z " />
<glyph glyph-name="trademark" unicode="&#x2122;" horiz-adv-x="426" d="M171 506 L171 560 L23 560 L23 506 L67 506 L67 308 L127 308 L127 506 L171 506 Z M289 349 L311 349 L343 443 L343 308 L398 308 L398 560 L343 560 L301 436 L260 560 L202 560 L202 308 L256 308 L256 445 L289 349 Z " />
<glyph glyph-name="f_f" unicode="&#xfb00;" horiz-adv-x="405" d="M363 485 C371 485 390 485 390 485 L390 568 C390 568 351 568 343 568 C309 568 282 559 263 540 C243 522 234 495 234 459 L234 412 L132 412 L132 444 C132 471 144 485 169 485 C177 485 196 485 196 485 L196 568 C196 568 153 568 145 568 C112 568 87 559 68 541 C49 524 40 497 40 463 L40 0 L132 0 L132 336 L234 336 L234 0 L326 0 L326 336 L390 336 L390 412 L326 412 L326 443 C326 471 338 485 363 485 L363 485 Z " />
<glyph glyph-name="fi" unicode="&#xfb01;" horiz-adv-x="382" d="M248 413 L132 413 L132 444 C132 471 144 485 169 485 C177 485 196 485 196 485 L196 568 C196 568 153 568 145 568 C112 568 87 559 68 541 C49 524 40 498 40 463 L40 0 L132 0 L132 337 L248 337 L248 0 L342 0 L342 413 L340 413 L248 413 L248 413 Z M294 460 C310 460 324 465 336 476 C347 488 353 501 353 517 C353 533 347 547 336 558 C324 570 310 576 294 576 C278 576 265 570 253 558 C242 547 237 533 237 517 C237 501 242 488 253 476 C265 465 278 460 294 460 L294 460 Z " />
<glyph glyph-name="fl" unicode="&#xfb02;" horiz-adv-x="381" d="M144 568 C112 568 86 559 68 541 C49 524 40 498 40 463 L40 0 L131 0 L131 337 L196 337 L196 413 L131 413 L131 444 C131 471 144 485 168 485 C172 485 209 485 247 485 L247 0 L341 0 L341 485 L341 560 L341 568 C341 568 153 568 144 568 L144 568 Z " />
</font>
</svg>
